<svg xmlns="http://www.w3.org/2000/svg" xmlns:xlink="http://www.w3.org/1999/xlink" xmlns:lucid="lucid" width="2502" height="822"><g transform="translate(-699 81)" lucid:page-tab-id="0_0"><path d="M500-500h3000v1500H500z" fill="#fff"/><path d="M700-74a6 6 0 0 1 6-6h2488a6 6 0 0 1 6 6v808a6 6 0 0 1-6 6H706a6 6 0 0 1-6-6z" stroke="#000" stroke-width="2" fill-opacity="0"/><path d="M836 297.37c-8.84 0-16 7.17-16 16v48c0 8.84 7.16 16 16 16h128c8.84 0 16-7.16 16-16v-48c0-8.83-7.16-16-16-16z" stroke="#000" stroke-width="2" fill="#fff"/><use xlink:href="#a" transform="matrix(1,0,0,1,828,305.37236743314503) translate(41.82421875 40.083767361111114)"/><path d="M981.5 337.37h61.12" stroke="#3a414a" fill="none"/><path d="M981.5 337.85h-.5v-.95h.5z" stroke="#3a414a" stroke-width=".05" fill="#3a414a"/><path d="M1057.38 337.37l-14.26 4.64v-9.26z" stroke="#3a414a" fill="#3a414a"/><path d="M1076 297.37c-8.84 0-16 7.17-16 16v48c0 8.84 7.16 16 16 16h128c8.84 0 16-7.16 16-16v-48c0-8.83-7.16-16-16-16z" stroke="#000" stroke-width="2" fill="#fff"/><use xlink:href="#b" transform="matrix(1,0,0,1,1068,305.37236743314503) translate(54.253689236111114 40.083767361111114)"/><path d="M2376 297.37c-8.84 0-16 7.17-16 16v48c0 8.84 7.16 16 16 16h248c8.84 0 16-7.16 16-16v-48c0-8.83-7.16-16-16-16z" stroke="#000" stroke-width="2" fill="#fff"/><use xlink:href="#c" transform="matrix(1,0,0,1,2368,305.3723674331449) translate(66.93467881944444 40.083767361111114)"/><path d="M2376 40c-8.84 0-16 7.16-16 16v48c0 8.84 7.16 16 16 16h248c8.84 0 16-7.16 16-16V56c0-8.84-7.16-16-16-16z" stroke="#000" stroke-width="2" fill="#fff"/><use xlink:href="#d" transform="matrix(1,0,0,1,2368,48) translate(42.888671875 40.083767361111114)"/><path d="M2776 297.37c-8.84 0-16 7.17-16 16v48c0 8.84 7.16 16 16 16h268c8.84 0 16-7.16 16-16v-48c0-8.83-7.16-16-16-16z" stroke="#000" stroke-width="2" fill="#fff"/><use xlink:href="#e" transform="matrix(1,0,0,1,2768,305.3723674331449) translate(59.88194444444446 40.083767361111114)"/><path d="M2775 40c-8.84 0-16 7.16-16 16v48c0 8.84 7.16 16 16 16h268c8.84 0 16-7.16 16-16V56c0-8.84-7.16-16-16-16z" stroke="#000" stroke-width="2" fill="#fff"/><use xlink:href="#f" transform="matrix(1,0,0,1,2767,48) translate(36.3359375 40.083767361111114)"/><path d="M1376 297.37c-8.84 0-16 7.17-16 16v48c0 8.84 7.16 16 16 16h268c8.84 0 16-7.16 16-16v-48c0-8.83-7.16-16-16-16z" stroke="#000" stroke-width="2" fill="#fff"/><use xlink:href="#g" transform="matrix(1,0,0,1,1368,305.37236743314503) translate(53.55598958333334 40.083767361111114)"/><path d="M1936 297.37c-8.84 0-16 7.17-16 16v48c0 8.84 7.16 16 16 16h248c8.84 0 16-7.16 16-16v-48c0-8.83-7.16-16-16-16z" stroke="#000" stroke-width="2" fill="#fff"/><use xlink:href="#h" transform="matrix(1,0,0,1,1928,305.37236743314503) translate(23.74262152777777 40.083767361111114)"/><path d="M1935 40c-8.84 0-16 7.16-16 16v48c0 8.84 7.16 16 16 16h248c8.84 0 16-7.16 16-16V56c0-8.84-7.16-16-16-16z" stroke="#000" stroke-width="2" fill="#fff"/><use xlink:href="#i" transform="matrix(1,0,0,1,1927.0000000000002,48) translate(28.20768229166667 40.083767361111114)"/><path d="M1936 517.37c-8.84 0-16 7.17-16 16v48c0 8.84 7.16 16 16 16h248c8.84 0 16-7.16 16-16v-48c0-8.83-7.16-16-16-16z" stroke="#000" stroke-width="2" fill="#fff"/><use xlink:href="#j" transform="matrix(1,0,0,1,1928,525.3723674331451) translate(36.05815972222224 40.083767361111114)"/><path d="M1661.4 354.74l244.72 192.5" stroke="#3a414a" fill="none"/><path d="M1661.7 354.37l-.6.75-.1-.1v-1.2z" stroke="#3a414a" stroke-width=".05" fill="#3a414a"/><path d="M1917.73 556.37l-14.08-5.17 5.73-7.3z" stroke="#3a414a" fill="#3a414a"/><path d="M1656.74 301.45L1905.5 90.6" stroke="#3a414a" fill="none"/><path d="M1657.05 301.8l-.4.35-.6-.75.4-.32z" stroke="#3a414a" stroke-width=".05" fill="#3a414a"/><path d="M1916.77 81.05l-7.9 12.76-5.98-7.07z" stroke="#3a414a" fill="#3a414a"/><path d="M1661.5 337.37h241.12" stroke="#3a414a" fill="none"/><path d="M1661.5 337.85h-.5v-.95h.5z" stroke="#3a414a" stroke-width=".05" fill="#3a414a"/><path d="M1917.38 337.37l-14.26 4.64v-9.26z" stroke="#3a414a" fill="#3a414a"/><use xlink:href="#k" transform="matrix(1,0,0,1,1747.2503109859554,341.37236743314503) translate(0 17.22222222222222)"/><path d="M1918.5 313.96h-241.12" stroke="#3a414a" fill="none"/><path d="M1919 314.44h-.5v-.95h.5z" stroke="#3a414a" stroke-width=".05" fill="#3a414a"/><path d="M1662.62 313.96l14.26-4.63v9.27z" stroke="#3a414a" fill="#3a414a"/><use xlink:href="#l" transform="matrix(1,0,0,1,1756.2152777777778,288.44985224640214) translate(0 17.22222222222222)"/><path d="M1221.5 337.37h121.12" stroke="#3a414a" fill="none"/><path d="M1221.5 337.85h-.5v-.95h.5z" stroke="#3a414a" stroke-width=".05" fill="#3a414a"/><path d="M1357.38 337.37l-14.26 4.64v-9.26z" stroke="#3a414a" fill="#3a414a"/><use xlink:href="#m" transform="matrix(1,0,0,1,1251.9097222222222,341.37236743314503) translate(0 17.22222222222222)"/><path d="M2641.5 80h100.12" stroke="#3a414a" fill="none"/><path d="M2641.5 80.47h-.5v-.94h.5z" stroke="#3a414a" stroke-width=".05" fill="#3a414a"/><path d="M2756.38 80l-14.26 4.64v-9.28z" stroke="#3a414a" fill="#3a414a"/><path d="M2641.5 337.37h101.12" stroke="#3a414a" fill="none"/><path d="M2641.5 337.85h-.5v-.95h.5z" stroke="#3a414a" stroke-width=".05" fill="#3a414a"/><path d="M2757.38 337.37l-14.26 4.64v-9.26z" stroke="#3a414a" fill="#3a414a"/><path d="M2201.5 337.37h141.12" stroke="#3a414a" stroke-linejoin="round" fill="none"/><path d="M2201.5 337.85h-.5v-.95h.5z" stroke="#3a414a" stroke-width=".05" fill="#3a414a"/><path d="M2357.38 337.37l-14.26 4.64v-9.26z" stroke="#3a414a" fill="#3a414a"/><use xlink:href="#n" transform="matrix(1,0,0,1,2255.009865543706,311.8619507664783) translate(0 17.22222222222222)"/><path d="M2200.5 80h142.12" stroke="#3a414a" stroke-linejoin="round" fill="none"/><path d="M2200.5 80.47h-.5v-.94h.5z" stroke="#3a414a" stroke-width=".05" fill="#3a414a"/><path d="M2357.38 80l-14.26 4.64v-9.28z" stroke="#3a414a" fill="#3a414a"/><path d="M2277.17 248.02v.02L2273 258.6l-3.32 7.48v.02l-2.9 5.84v.02l-2.65 4.8v.02l-2.48 4.08v.02l-2.35 3.53v.02h-.02l-2.25 3.1v.02l-2.2 2.77v.02l-2.15 2.48v.02l-2.12 2.24v.02l-2.1 2.04-2.1 1.9-2.1 1.72-2.1 1.6-2.12 1.48-2.15 1.37h-.02l-2.2 1.26-2.24 1.17h-.02l-2.3 1.1-2.38 1-2.47.9v.02h-.02l-2.55.83h-.02l-2.68.75-2.83.66h-.02l-2.97.57h-.02l-3.16.46h-.02l-3.37.36-3.64.22h-.02l-3.43.07v-.96l3.4-.07 3.62-.22 3.36-.36 3.13-.47 2.97-.56 2.8-.66 2.64-.73 2.55-.82 2.43-.9 2.35-1 2.28-1.06 2.22-1.17 2.16-1.25 2.13-1.35 2.1-1.45 2.08-1.58 2.06-1.7 2.06-1.86 2.07-2.03 2.1-2.22 2.12-2.47 2.17-2.74 2.24-3.08 2.34-3.52 2.46-4.06 2.63-4.8 2.9-5.82 3.3-7.44 4.15-10.53 5.57-16.36h1zm69.12-129.3l-1.2.75-3.07 2.14-3 2.3-2.97 2.44-2.9 2.62-2.9 2.84-2.9 3.07-2.88 3.34-2.9 3.68-2.95 4.07-3.02 4.54-3.1 5.14-3.27 5.95-3.5 7.05-3.9 8.76-4.7 11.96-6.96 20.47h-1l7.06-20.78v-.02l4.73-11.98 3.9-8.8v-.02l3.52-7.07v-.02l3.3-5.97 3.12-5.18v-.02l3.04-4.57 2.97-4.08h.02v-.02l2.93-3.68v-.02l2.9-3.36h.02v-.02l2.9-3.08 2.92-2.86v-.02l2.93-2.64h.02l2.97-2.47h.02l3.02-2.3v-.02h.02l3.1-2.14v-.02l1.2-.76z" stroke="#3a414a" stroke-width=".05" fill="#3a414a"/><path d="M2201.53 314.6h-.53v-.95h.5z" fill="#3a414a"/><path stroke="#3a414a" stroke-width=".05" fill="#3a414a"/><path d="M2348.6 122.2l-4.3-8.2 14.8-2.5z" fill="#3a414a"/><path d="M2348.48 123l-4.9-9.37 16.88-2.85zm-3.45-8.65l3.7 7.06 9-9.2z" stroke="#3a414a" stroke-width=".05" fill="#3a414a"/><use xlink:href="#o" transform="matrix(1,0,0,1,2252.8228189494894,209.82945189993345) translate(0 17.22222222222222)"/><path d="M2298.2 484.5h-.02v.02l-5.7 7.86-4.93 6.23v.02h-.02l-4.44 5.16h-.02v.02l-4.14 4.4-3.92 3.85h-.02l-3.75 3.4h-.02l-3.64 3.03h-.02l-3.6 2.73v.02l-3.54 2.46h-.02l-3.52 2.24h-.02l-3.53 2.05h-.02l-3.56 1.88h-.02l-3.6 1.7h-.02l-3.7 1.57h-.02l-3.78 1.4v.02l-3.92 1.27h-.02l-4.06 1.15h-.02l-4.24 1-4.46.84h-.02l-4.7.7h-.02l-5 .52h-.02l-5.34.34h-.02l-5.27.1v-.95l5.25-.1 5.32-.33 4.98-.52 4.68-.7 4.43-.83 4.2-1 4.05-1.12 3.9-1.26 3.77-1.4 3.67-1.55 3.6-1.7 3.54-1.86 3.52-2.02 3.5-2.23 3.53-2.46 3.56-2.7 3.62-3 3.74-3.38 3.9-3.82 4.1-4.4 4.45-5.13 4.92-6.2 5.7-7.83 4.46-6.76h1.14zm58.55-96.04l-9.4 14.18-29.04 49.5-2.14 3.56h-1.1l2.43-4.05 29.05-49.5v-.02l9.4-14.2z" stroke="#3a414a" stroke-width=".05" fill="#3a414a"/><path d="M2201.53 540.46h-.53v-.94h.5z" fill="#3a414a"/><path stroke="#3a414a" stroke-width=".05" fill="#3a414a"/><path d="M2360.4 390.53l-7.5-5.47 12.17-8.78z" fill="#3a414a"/><path d="M2360.64 391.3l-8.54-6.24 13.88-10.02zm-6.92-6.24l6.43 4.7 4-12.24z" stroke="#3a414a" stroke-width=".05" fill="#3a414a"/><use xlink:href="#p" transform="matrix(1,0,0,1,2259.2528350877374,455.70371063397414) translate(0 17.22222222222222)"/><use xlink:href="#q" transform="matrix(1,0,0,1,2259.2528350877374,455.70371063397414) translate(50.24305555555556 17.22222222222222)"/><path d="M2376 517.37c-8.84 0-16 7.17-16 16v48c0 8.84 7.16 16 16 16h248c8.84 0 16-7.16 16-16v-48c0-8.83-7.16-16-16-16z" stroke="#000" stroke-width="2" fill="#fff"/><use xlink:href="#r" transform="matrix(1,0,0,1,2368,525.3723674331451) translate(63.09895833333333 40.083767361111114)"/><path d="M2201.5 557.37h141.12" stroke="#3a414a" stroke-linejoin="round" fill="none"/><path d="M2201.5 557.85h-.5v-.95h.5z" stroke="#3a414a" stroke-width=".05" fill="#3a414a"/><path d="M2357.38 557.37l-14.26 4.64v-9.26z" stroke="#3a414a" fill="#3a414a"/><use xlink:href="#s" transform="matrix(1,0,0,1,2251.0168099881503,561.3723674331451) translate(0 17.22222222222222)"/><path d="M2796 517.37c-8.84 0-16 7.17-16 16v48c0 8.84 7.16 16 16 16h268c8.84 0 16-7.16 16-16v-48c0-8.83-7.16-16-16-16z" stroke="#000" stroke-width="2" fill="#fff"/><use xlink:href="#t" transform="matrix(1,0,0,1,2788,525.3723674331451) translate(56.04622395833336 40.083767361111114)"/><path d="M2641.5 557.37h121.12" stroke="#3a414a" stroke-linejoin="round" fill="none"/><path d="M2641.5 557.85h-.5v-.95h.5z" stroke="#3a414a" stroke-width=".05" fill="#3a414a"/><path d="M2777.38 557.37l-14.26 4.64v-9.26z" stroke="#3a414a" fill="#3a414a"/><defs><path d="M783 20c-382 0-661-292-661-764 0-473 279-766 661-766 302 0 548 182 601 489h-190c-42-204-217-313-411-313-268 0-476 208-476 590 0 381 209 588 476 588 195 0 369-110 411-313h190c-52 303-296 489-601 489" id="u"/><path d="M338-1490V0H158v-1490h180" id="v"/><path d="M158 0v-1118h180V0H158zm91-1301c-68 0-125-53-125-119s57-119 125-119c69 0 126 53 126 119s-57 119-126 119" id="w"/><path d="M628 24c-324 0-524-230-524-574 0-343 198-582 503-582 237 0 487 146 487 559v75H286c9 234 145 362 343 362 132 0 231-58 273-172l174 48C1024-91 857 24 628 24zM287-650h624c-17-190-120-322-304-322-192 0-309 151-320 322" id="x"/><path d="M338-670V0H158v-1118h173l1 207c72-158 192-221 342-221 226 0 378 139 378 422V0H872v-695c0-172-96-275-252-275-161 0-282 109-282 300" id="y"/><path d="M598-1118v154H368v674c0 100 37 144 132 144 23 0 62-6 92-12L629-6c-37 13-88 20-134 20-193 0-307-107-307-290v-688H20v-154h168v-266h180v266h230" id="z"/><g id="a"><use transform="matrix(0.010850694444444444,0,0,0.010850694444444444,0,0)" xlink:href="#u"/><use transform="matrix(0.010850694444444444,0,0,0.010850694444444444,16.23263888888889,0)" xlink:href="#v"/><use transform="matrix(0.010850694444444444,0,0,0.010850694444444444,21.614583333333336,0)" xlink:href="#w"/><use transform="matrix(0.010850694444444444,0,0,0.010850694444444444,26.99652777777778,0)" xlink:href="#x"/><use transform="matrix(0.010850694444444444,0,0,0.010850694444444444,39.95225694444444,0)" xlink:href="#y"/><use transform="matrix(0.010850694444444444,0,0,0.010850694444444444,53.08159722222222,0)" xlink:href="#z"/></g><path d="M52 0l541-1490h220L1361 0h-200l-149-416H398L254 0H52zm404-582h497c-103-290-145-390-251-756-108 377-145 460-246 756" id="A"/><path d="M180 0v-1490h510c348 0 508 209 508 474 0 266-160 477-507 477H370V0H180zm190-706h312c236 0 327-133 327-310 0-176-91-307-329-307H370v617" id="B"/><path d="M370-1490V0H180v-1490h190" id="C"/><g id="b"><use transform="matrix(0.010850694444444444,0,0,0.010850694444444444,0,0)" xlink:href="#A"/><use transform="matrix(0.010850694444444444,0,0,0.010850694444444444,15.33203125,0)" xlink:href="#B"/><use transform="matrix(0.010850694444444444,0,0,0.010850694444444444,29.524739583333332,0)" xlink:href="#C"/></g><path d="M180 0v-1490h901v168H370v510h643v168H370V0H180" id="D"/><path d="M657 26c-323 0-524-166-541-416h195c15 169 171 246 346 246 202 0 356-106 356-265 5-203-294-238-475-293-239-73-380-191-380-389 0-252 224-419 512-419 294 0 499 171 508 396H992c-17-145-151-228-328-228-193 0-321 102-321 242 0 156 175 211 284 241l149 41c160 44 422 134 422 412 0 244-197 432-541 432" id="E"/><path d="M158 0v-1118h174v172h12c41-113 157-188 290-188 26 0 70 2 91 3v181c-11-2-60-10-108-10-161 0-279 109-279 260V0H158" id="F"/><path d="M481 0L54-1118h197c107 314 236 620 325 951 87-331 217-637 324-951h197L670 0H481" id="G"/><path d="M613 24c-304 0-509-231-509-576 0-350 205-580 509-580 216 0 392 114 453 309l-173 49c-33-115-133-197-280-197-223 0-326 196-326 419 0 220 103 415 326 415 150 0 252-85 285-206l172 49C1010-95 832 24 613 24" id="H"/><g id="c"><use transform="matrix(0.010850694444444444,0,0,0.010850694444444444,0,0)" xlink:href="#D"/><use transform="matrix(0.010850694444444444,0,0,0.010850694444444444,13.118489583333332,0)" xlink:href="#v"/><use transform="matrix(0.010850694444444444,0,0,0.010850694444444444,18.50043402777778,0)" xlink:href="#x"/><use transform="matrix(0.010850694444444444,0,0,0.010850694444444444,31.456163194444443,0)" xlink:href="#x"/><use transform="matrix(0.010850694444444444,0,0,0.010850694444444444,44.41189236111111,0)" xlink:href="#z"/><use transform="matrix(0.010850694444444444,0,0,0.010850694444444444,51.681857638888886,0)" xlink:href="#E"/><use transform="matrix(0.010850694444444444,0,0,0.010850694444444444,65.93967013888889,0)" xlink:href="#x"/><use transform="matrix(0.010850694444444444,0,0,0.010850694444444444,78.89539930555556,0)" xlink:href="#F"/><use transform="matrix(0.010850694444444444,0,0,0.010850694444444444,87.60850694444446,0)" xlink:href="#G"/><use transform="matrix(0.010850694444444444,0,0,0.010850694444444444,100.09765625000001,0)" xlink:href="#w"/><use transform="matrix(0.010850694444444444,0,0,0.010850694444444444,105.47960069444446,0)" xlink:href="#H"/><use transform="matrix(0.010850694444444444,0,0,0.010850694444444444,118.17491319444446,0)" xlink:href="#x"/></g><path d="M180 0v-1490h510c348 0 508 194 508 460 0 198-88 351-276 417L1256 0h-220L726-579c-117 2-238 0-356 1V0H180zm190-747h312c235 0 327-108 327-283 0-177-92-293-329-293H370v576" id="I"/><path d="M538 24C308 24 148-78 108-271l171-41c32 123 123 178 257 178 156 0 256-77 256-169 0-77-54-128-164-154l-186-44c-203-48-300-148-300-305 0-192 176-326 414-326 230 0 351 112 402 269l-163 42c-31-80-94-158-238-158-133 0-233 69-233 162 0 83 57 129 188 160l169 40c203 48 298 149 298 302 0 196-179 339-441 339" id="J"/><path d="M613 24c-304 0-509-231-509-576 0-350 205-580 509-580 305 0 511 230 511 580 0 345-206 576-511 576zm0-161c226 0 329-195 329-415 0-222-103-419-329-419-223 0-326 196-326 419 0 220 103 415 326 415" id="K"/><path d="M537 14c-226 0-379-139-379-422v-710h180v695c0 172 97 275 253 275 160 0 281-109 281-300v-670h181V0H879v-209C806-46 684 14 537 14" id="L"/><g id="d"><use transform="matrix(0.010850694444444444,0,0,0.010850694444444444,0,0)" xlink:href="#I"/><use transform="matrix(0.010850694444444444,0,0,0.010850694444444444,13.975694444444445,0)" xlink:href="#x"/><use transform="matrix(0.010850694444444444,0,0,0.010850694444444444,26.931423611111104,0)" xlink:href="#J"/><use transform="matrix(0.010850694444444444,0,0,0.010850694444444444,38.66102430555555,0)" xlink:href="#K"/><use transform="matrix(0.010850694444444444,0,0,0.010850694444444444,51.98567708333333,0)" xlink:href="#L"/><use transform="matrix(0.010850694444444444,0,0,0.010850694444444444,65.12586805555554,0)" xlink:href="#F"/><use transform="matrix(0.010850694444444444,0,0,0.010850694444444444,73.1228298611111,0)" xlink:href="#H"/><use transform="matrix(0.010850694444444444,0,0,0.010850694444444444,85.8181423611111,0)" xlink:href="#x"/><use transform="matrix(0.010850694444444444,0,0,0.010850694444444444,98.77387152777777,0)" xlink:href="#E"/><use transform="matrix(0.010850694444444444,0,0,0.010850694444444444,113.03168402777777,0)" xlink:href="#x"/><use transform="matrix(0.010850694444444444,0,0,0.010850694444444444,125.98741319444444,0)" xlink:href="#F"/><use transform="matrix(0.010850694444444444,0,0,0.010850694444444444,134.70052083333334,0)" xlink:href="#G"/><use transform="matrix(0.010850694444444444,0,0,0.010850694444444444,147.18967013888889,0)" xlink:href="#w"/><use transform="matrix(0.010850694444444444,0,0,0.010850694444444444,152.57161458333334,0)" xlink:href="#H"/><use transform="matrix(0.010850694444444444,0,0,0.010850694444444444,165.26692708333334,0)" xlink:href="#x"/></g><path d="M158 418v-1536h174v179h20c37-59 106-193 324-193 279 0 474 222 474 576 0 356-194 580-473 580-213 0-288-135-325-197h-14v591H158zm492-555c209 0 317-186 317-421 0-232-105-413-317-413-206 0-314 166-314 413 0 249 111 421 314 421" id="M"/><path d="M140 405l46-156c120 36 205 19 263-150l32-93L54-1118h197c107 313 237 620 324 950 87-331 219-637 326-950h196L606 167c-68 178-176 259-334 259-64 0-113-12-132-21" id="N"/><g id="e"><use transform="matrix(0.010850694444444444,0,0,0.010850694444444444,0,0)" xlink:href="#D"/><use transform="matrix(0.010850694444444444,0,0,0.010850694444444444,13.118489583333332,0)" xlink:href="#v"/><use transform="matrix(0.010850694444444444,0,0,0.010850694444444444,18.50043402777778,0)" xlink:href="#x"/><use transform="matrix(0.010850694444444444,0,0,0.010850694444444444,31.456163194444443,0)" xlink:href="#x"/><use transform="matrix(0.010850694444444444,0,0,0.010850694444444444,44.41189236111111,0)" xlink:href="#z"/><use transform="matrix(0.010850694444444444,0,0,0.010850694444444444,51.681857638888886,0)" xlink:href="#I"/><use transform="matrix(0.010850694444444444,0,0,0.010850694444444444,65.65755208333333,0)" xlink:href="#x"/><use transform="matrix(0.010850694444444444,0,0,0.010850694444444444,78.61328125,0)" xlink:href="#M"/><use transform="matrix(0.010850694444444444,0,0,0.010850694444444444,92.22005208333333,0)" xlink:href="#K"/><use transform="matrix(0.010850694444444444,0,0,0.010850694444444444,105.54470486111111,0)" xlink:href="#J"/><use transform="matrix(0.010850694444444444,0,0,0.010850694444444444,117.27430555555556,0)" xlink:href="#w"/><use transform="matrix(0.010850694444444444,0,0,0.010850694444444444,122.65625,0)" xlink:href="#z"/><use transform="matrix(0.010850694444444444,0,0,0.010850694444444444,129.70920138888889,0)" xlink:href="#K"/><use transform="matrix(0.010850694444444444,0,0,0.010850694444444444,143.03385416666666,0)" xlink:href="#F"/><use transform="matrix(0.010850694444444444,0,0,0.010850694444444444,151.74696180555554,0)" xlink:href="#N"/></g><g id="f"><use transform="matrix(0.010850694444444444,0,0,0.010850694444444444,0,0)" xlink:href="#I"/><use transform="matrix(0.010850694444444444,0,0,0.010850694444444444,13.975694444444445,0)" xlink:href="#x"/><use transform="matrix(0.010850694444444444,0,0,0.010850694444444444,26.931423611111104,0)" xlink:href="#J"/><use transform="matrix(0.010850694444444444,0,0,0.010850694444444444,38.66102430555555,0)" xlink:href="#K"/><use transform="matrix(0.010850694444444444,0,0,0.010850694444444444,51.98567708333333,0)" xlink:href="#L"/><use transform="matrix(0.010850694444444444,0,0,0.010850694444444444,65.12586805555554,0)" xlink:href="#F"/><use transform="matrix(0.010850694444444444,0,0,0.010850694444444444,73.1228298611111,0)" xlink:href="#H"/><use transform="matrix(0.010850694444444444,0,0,0.010850694444444444,85.8181423611111,0)" xlink:href="#x"/><use transform="matrix(0.010850694444444444,0,0,0.010850694444444444,98.77387152777777,0)" xlink:href="#I"/><use transform="matrix(0.010850694444444444,0,0,0.010850694444444444,112.74956597222221,0)" xlink:href="#x"/><use transform="matrix(0.010850694444444444,0,0,0.010850694444444444,125.70529513888889,0)" xlink:href="#M"/><use transform="matrix(0.010850694444444444,0,0,0.010850694444444444,139.31206597222223,0)" xlink:href="#K"/><use transform="matrix(0.010850694444444444,0,0,0.010850694444444444,152.63671875,0)" xlink:href="#J"/><use transform="matrix(0.010850694444444444,0,0,0.010850694444444444,164.36631944444446,0)" xlink:href="#w"/><use transform="matrix(0.010850694444444444,0,0,0.010850694444444444,169.7482638888889,0)" xlink:href="#z"/><use transform="matrix(0.010850694444444444,0,0,0.010850694444444444,176.8012152777778,0)" xlink:href="#K"/><use transform="matrix(0.010850694444444444,0,0,0.010850694444444444,190.1258680555556,0)" xlink:href="#F"/><use transform="matrix(0.010850694444444444,0,0,0.010850694444444444,198.83897569444443,0)" xlink:href="#N"/></g><path d="M158 0v-1118h175l1 205c55-151 181-225 313-225 147 0 245 90 285 228 53-141 190-228 352-228 194 0 352 125 352 384V0h-181v-749c0-161-105-225-225-225-151 0-243 103-243 244V0H807v-767c0-124-93-207-219-207-131 0-250 92-250 270V0H158" id="O"/><path d="M471 26C259 26 90-98 90-318c0-256 228-303 435-329 202-27 287-16 287-108 0-139-79-219-234-219-161 0-248 86-283 164l-173-57c86-203 278-265 451-265 150 0 419 46 419 395V0H815v-152h-12C765-73 660 26 471 26zm31-159c199 0 310-134 310-271v-155c-30 35-226 55-295 64-131 17-246 59-246 186 0 116 97 176 231 176" id="P"/><path d="M577 24c-279 0-473-224-473-580 0-354 195-576 474-576 218 0 287 134 324 193h14v-551h180V0H922v-173h-20C865-111 790 24 577 24zm27-161c203 0 314-172 314-421 0-247-108-413-314-413-212 0-317 181-317 413 0 235 108 421 317 421" id="Q"/><path d="M784 20c-382 0-662-292-662-764 0-473 280-766 662-766s660 293 660 766c0 282-99 499-260 629l192 255h-198L1049-33C969 2 880 20 784 20zm-62-486h198l156 205c112-98 183-261 183-483 0-383-209-590-475-590-268 0-477 208-477 590 0 380 209 588 477 588 54 0 106-9 154-25" id="R"/><g id="g"><use transform="matrix(0.010850694444444444,0,0,0.010850694444444444,0,0)" xlink:href="#u"/><use transform="matrix(0.010850694444444444,0,0,0.010850694444444444,16.23263888888889,0)" xlink:href="#K"/><use transform="matrix(0.010850694444444444,0,0,0.010850694444444444,29.557291666666664,0)" xlink:href="#O"/><use transform="matrix(0.010850694444444444,0,0,0.010850694444444444,49.0234375,0)" xlink:href="#O"/><use transform="matrix(0.010850694444444444,0,0,0.010850694444444444,68.48958333333333,0)" xlink:href="#P"/><use transform="matrix(0.010850694444444444,0,0,0.010850694444444444,80.96788194444444,0)" xlink:href="#y"/><use transform="matrix(0.010850694444444444,0,0,0.010850694444444444,94.09722222222221,0)" xlink:href="#Q"/><use transform="matrix(0.010850694444444444,0,0,0.010850694444444444,107.70399305555556,0)" xlink:href="#R"/><use transform="matrix(0.010850694444444444,0,0,0.010850694444444444,124.69618055555556,0)" xlink:href="#L"/><use transform="matrix(0.010850694444444444,0,0,0.010850694444444444,137.83637152777777,0)" xlink:href="#x"/><use transform="matrix(0.010850694444444444,0,0,0.010850694444444444,150.79210069444443,0)" xlink:href="#L"/><use transform="matrix(0.010850694444444444,0,0,0.010850694444444444,163.93229166666666,0)" xlink:href="#x"/></g><path d="M180 0v-1490h190v644h782v-644h190V0h-190v-678H370V0H180" id="S"/><g id="h"><use transform="matrix(0.010850694444444444,0,0,0.010850694444444444,0,0)" xlink:href="#B"/><use transform="matrix(0.010850694444444444,0,0,0.010850694444444444,14.192708333333332,0)" xlink:href="#F"/><use transform="matrix(0.010850694444444444,0,0,0.010850694444444444,22.189670138888886,0)" xlink:href="#x"/><use transform="matrix(0.010850694444444444,0,0,0.010850694444444444,35.14539930555555,0)" xlink:href="#M"/><use transform="matrix(0.010850694444444444,0,0,0.010850694444444444,48.96918402777778,0)" xlink:href="#P"/><use transform="matrix(0.010850694444444444,0,0,0.010850694444444444,61.447482638888886,0)" xlink:href="#F"/><use transform="matrix(0.010850694444444444,0,0,0.010850694444444444,69.44444444444444,0)" xlink:href="#x"/><use transform="matrix(0.010850694444444444,0,0,0.010850694444444444,82.40017361111111,0)" xlink:href="#D"/><use transform="matrix(0.010850694444444444,0,0,0.010850694444444444,95.51866319444444,0)" xlink:href="#v"/><use transform="matrix(0.010850694444444444,0,0,0.010850694444444444,100.90060763888889,0)" xlink:href="#x"/><use transform="matrix(0.010850694444444444,0,0,0.010850694444444444,113.85633680555556,0)" xlink:href="#x"/><use transform="matrix(0.010850694444444444,0,0,0.010850694444444444,126.81206597222224,0)" xlink:href="#z"/><use transform="matrix(0.010850694444444444,0,0,0.010850694444444444,134.08203125,0)" xlink:href="#S"/><use transform="matrix(0.010850694444444444,0,0,0.010850694444444444,150.59678819444446,0)" xlink:href="#P"/><use transform="matrix(0.010850694444444444,0,0,0.010850694444444444,163.07508680555557,0)" xlink:href="#y"/><use transform="matrix(0.010850694444444444,0,0,0.010850694444444444,176.20442708333334,0)" xlink:href="#Q"/><use transform="matrix(0.010850694444444444,0,0,0.010850694444444444,189.81119791666669,0)" xlink:href="#v"/><use transform="matrix(0.010850694444444444,0,0,0.010850694444444444,195.19314236111114,0)" xlink:href="#x"/><use transform="matrix(0.010850694444444444,0,0,0.010850694444444444,208.1488715277778,0)" xlink:href="#F"/></g><path d="M645 0H180v-1490h484c435 0 692 280 692 742 0 466-257 748-711 748zM370-168h263c363 0 539-218 539-580 0-358-176-574-521-574H370v1154" id="T"/><g id="i"><use transform="matrix(0.010850694444444444,0,0,0.010850694444444444,0,0)" xlink:href="#T"/><use transform="matrix(0.010850694444444444,0,0,0.010850694444444444,16.03732638888889,0)" xlink:href="#x"/><use transform="matrix(0.010850694444444444,0,0,0.010850694444444444,28.99305555555556,0)" xlink:href="#M"/><use transform="matrix(0.010850694444444444,0,0,0.010850694444444444,42.599826388888886,0)" xlink:href="#v"/><use transform="matrix(0.010850694444444444,0,0,0.010850694444444444,47.98177083333333,0)" xlink:href="#K"/><use transform="matrix(0.010850694444444444,0,0,0.010850694444444444,60.87239583333333,0)" xlink:href="#N"/><use transform="matrix(0.010850694444444444,0,0,0.010850694444444444,73.47005208333333,0)" xlink:href="#D"/><use transform="matrix(0.010850694444444444,0,0,0.010850694444444444,86.58854166666666,0)" xlink:href="#v"/><use transform="matrix(0.010850694444444444,0,0,0.010850694444444444,91.97048611111111,0)" xlink:href="#x"/><use transform="matrix(0.010850694444444444,0,0,0.010850694444444444,104.92621527777777,0)" xlink:href="#x"/><use transform="matrix(0.010850694444444444,0,0,0.010850694444444444,117.88194444444444,0)" xlink:href="#z"/><use transform="matrix(0.010850694444444444,0,0,0.010850694444444444,125.15190972222221,0)" xlink:href="#S"/><use transform="matrix(0.010850694444444444,0,0,0.010850694444444444,141.66666666666666,0)" xlink:href="#P"/><use transform="matrix(0.010850694444444444,0,0,0.010850694444444444,154.14496527777777,0)" xlink:href="#y"/><use transform="matrix(0.010850694444444444,0,0,0.010850694444444444,167.27430555555554,0)" xlink:href="#Q"/><use transform="matrix(0.010850694444444444,0,0,0.010850694444444444,180.88107638888889,0)" xlink:href="#v"/><use transform="matrix(0.010850694444444444,0,0,0.010850694444444444,186.26302083333331,0)" xlink:href="#x"/><use transform="matrix(0.010850694444444444,0,0,0.010850694444444444,199.21875,0)" xlink:href="#F"/></g><path d="M180 0v-1490h528c311 0 458 177 458 395 0 191-114 278-244 313v14c139 9 302 137 302 371 0 225-148 397-499 397H180zm190-168h350c232 0 321-102 321-231 0-149-120-277-311-277H370v508zm0-668h328c160 0 286-101 286-255 0-129-87-231-280-231H370v486" id="U"/><g id="j"><use transform="matrix(0.010850694444444444,0,0,0.010850694444444444,0,0)" xlink:href="#E"/><use transform="matrix(0.010850694444444444,0,0,0.010850694444444444,14.2578125,0)" xlink:href="#z"/><use transform="matrix(0.010850694444444444,0,0,0.010850694444444444,21.63628472222222,0)" xlink:href="#P"/><use transform="matrix(0.010850694444444444,0,0,0.010850694444444444,34.11458333333333,0)" xlink:href="#F"/><use transform="matrix(0.010850694444444444,0,0,0.010850694444444444,42.827690972222214,0)" xlink:href="#z"/><use transform="matrix(0.010850694444444444,0,0,0.010850694444444444,50.097656249999986,0)" xlink:href="#U"/><use transform="matrix(0.010850694444444444,0,0,0.010850694444444444,64.63758680555554,0)" xlink:href="#P"/><use transform="matrix(0.010850694444444444,0,0,0.010850694444444444,77.11588541666666,0)" xlink:href="#z"/><use transform="matrix(0.010850694444444444,0,0,0.010850694444444444,83.8433159722222,0)" xlink:href="#z"/><use transform="matrix(0.010850694444444444,0,0,0.010850694444444444,91.11328124999997,0)" xlink:href="#v"/><use transform="matrix(0.010850694444444444,0,0,0.010850694444444444,96.49522569444441,0)" xlink:href="#x"/><use transform="matrix(0.010850694444444444,0,0,0.010850694444444444,109.45095486111109,0)" xlink:href="#S"/><use transform="matrix(0.010850694444444444,0,0,0.010850694444444444,125.96571180555553,0)" xlink:href="#P"/><use transform="matrix(0.010850694444444444,0,0,0.010850694444444444,138.44401041666663,0)" xlink:href="#y"/><use transform="matrix(0.010850694444444444,0,0,0.010850694444444444,151.5733506944444,0)" xlink:href="#Q"/><use transform="matrix(0.010850694444444444,0,0,0.010850694444444444,165.18012152777774,0)" xlink:href="#v"/><use transform="matrix(0.010850694444444444,0,0,0.010850694444444444,170.5620659722222,0)" xlink:href="#x"/><use transform="matrix(0.010850694444444444,0,0,0.010850694444444444,183.51779513888883,0)" xlink:href="#F"/></g><path fill="#333" d="M428-647V0H128v-1490h294v586c65-146 175-228 341-228 232 0 385 159 385 421V0H847v-659c0-139-76-222-202-222-128 0-217 86-217 234" id="V"/><path fill="#333" d="M440 22C227 22 68-92 68-313c0-250 202-322 422-343 195-21 271-24 271-105 0-95-63-149-175-149-116 0-187 57-211 129l-275-46c57-194 237-305 487-305 240 0 474 108 474 379V0H777v-155h-10C713-51 605 22 440 22zm85-211c140 0 238-93 238-211v-121c-37 26-156 42-222 51-111 16-185 59-185 149 0 87 70 132 169 132" id="W"/><path fill="#333" d="M428-647V0H128v-1118h283l4 231c63-156 176-245 348-245 232 0 384 159 384 421V0H847v-659c0-139-76-222-202-222-128 0-217 86-217 234" id="X"/><path fill="#333" d="M537 19C279 19 81-185 81-557c0-382 206-575 454-575 190 0 278 113 318 202h10v-560h300V0H868v-179h-15C812-89 719 19 537 19zm92-241c153 0 240-134 240-336 0-203-86-334-240-334-158 0-240 138-240 334 0 197 84 336 240 336" id="Y"/><path fill="#333" d="M428-1490V0H128v-1490h300" id="Z"/><path fill="#333" d="M633 22C291 22 81-200 81-553c0-345 210-579 537-579 292 0 525 185 525 567v84H378c7 183 109 277 260 277 105 0 184-46 216-132l272 51C1071-99 893 22 633 22zM380-669h474c-15-146-94-237-233-237-143 0-229 99-241 237" id="aa"/><g id="k"><use transform="matrix(0.008680555555555556,0,0,0.008680555555555556,0,0)" xlink:href="#V"/><use transform="matrix(0.008680555555555556,0,0,0.008680555555555556,11.067708333333334,0)" xlink:href="#W"/><use transform="matrix(0.008680555555555556,0,0,0.008680555555555556,21.38888888888889,0)" xlink:href="#X"/><use transform="matrix(0.008680555555555556,0,0,0.008680555555555556,32.45659722222222,0)" xlink:href="#Y"/><use transform="matrix(0.008680555555555556,0,0,0.008680555555555556,43.66319444444444,0)" xlink:href="#Z"/><use transform="matrix(0.008680555555555556,0,0,0.008680555555555556,48.48090277777778,0)" xlink:href="#aa"/></g><path fill="#333" d="M128 0v-1118h290v195h12c54-169 184-238 367-200v268c-27-8-86-15-130-15-138 0-239 95-239 234V0H128" id="ab"/><path fill="#333" d="M625 442c-280 0-454-114-503-274l258-72c28 63 97 128 243 128 153 0 246-69 246-216v-206h-23C805-108 717-16 536-16 284-16 81-191 81-561c0-378 208-571 456-571 188 0 280 113 321 202h13v-188h295V-9c0 303-226 451-541 451zm5-686c153 0 240-119 240-319 0-198-86-329-240-329-158 0-241 137-241 329 0 195 85 319 241 319" id="ac"/><path fill="#333" d="M128 0v-1118h300V0H128zm150-1264c-91 0-165-68-165-154 0-85 74-154 165-154 90 0 165 69 165 154 0 86-75 154-165 154" id="ad"/><path fill="#333" d="M572 22C302 22 117-98 78-306l279-48c29 105 101 156 224 156 114 0 185-48 185-115 0-118-228-130-337-155-215-49-322-150-322-317 0-215 187-347 470-347 265 0 424 116 466 298l-266 47c-24-76-87-130-196-130-98 0-174 46-174 113 0 56 38 95 144 117l201 40c216 44 320 143 320 302 0 220-207 367-500 367" id="ae"/><path fill="#333" d="M683-1118v229H474v562c0 71 29 104 102 104 23 0 73-7 95-13l43 225C647 9 580 16 520 16 296 16 174-96 174-301v-588H20v-229h154v-266h300v266h209" id="af"/><g id="l"><use transform="matrix(0.008680555555555556,0,0,0.008680555555555556,0,0)" xlink:href="#ab"/><use transform="matrix(0.008680555555555556,0,0,0.008680555555555556,6.805555555555556,0)" xlink:href="#aa"/><use transform="matrix(0.008680555555555556,0,0,0.008680555555555556,17.395833333333336,0)" xlink:href="#ac"/><use transform="matrix(0.008680555555555556,0,0,0.008680555555555556,28.628472222222225,0)" xlink:href="#ad"/><use transform="matrix(0.008680555555555556,0,0,0.008680555555555556,33.44618055555556,0)" xlink:href="#ae"/><use transform="matrix(0.008680555555555556,0,0,0.008680555555555556,43.40277777777778,0)" xlink:href="#af"/><use transform="matrix(0.008680555555555556,0,0,0.008680555555555556,49.73958333333333,0)" xlink:href="#aa"/><use transform="matrix(0.008680555555555556,0,0,0.008680555555555556,60.32986111111111,0)" xlink:href="#ab"/></g><path fill="#333" d="M1163 418H863v-597h-10C812-89 719 19 537 19 279 19 81-185 81-557c0-382 206-575 454-575 190 0 278 113 318 202h15v-188h295V418zM629-222c153 0 240-134 240-336 0-203-86-334-240-334-158 0-240 138-240 334 0 197 84 336 240 336" id="ag"/><path fill="#333" d="M513 14c-232 0-385-159-385-421v-711h300v659c0 139 76 222 202 222 127 0 217-86 217-234v-647h301V0H864l-4-232C797-74 683 14 513 14" id="ah"/><g id="m"><use transform="matrix(0.008680555555555556,0,0,0.008680555555555556,0,0)" xlink:href="#aa"/><use transform="matrix(0.008680555555555556,0,0,0.008680555555555556,10.590277777777779,0)" xlink:href="#X"/><use transform="matrix(0.008680555555555556,0,0,0.008680555555555556,21.657986111111114,0)" xlink:href="#ag"/><use transform="matrix(0.008680555555555556,0,0,0.008680555555555556,32.864583333333336,0)" xlink:href="#ah"/><use transform="matrix(0.008680555555555556,0,0,0.008680555555555556,43.93229166666667,0)" xlink:href="#aa"/><use transform="matrix(0.008680555555555556,0,0,0.008680555555555556,54.52256944444445,0)" xlink:href="#ah"/><use transform="matrix(0.008680555555555556,0,0,0.008680555555555556,65.59027777777779,0)" xlink:href="#aa"/></g><path fill="#333" d="M120 396l69-226c123 42 245 23 254-107l8-60L31-1118h319c87 288 199 559 259 872 72-308 185-583 277-872h315L726 132c-68 181-186 294-410 294-79 0-153-13-196-30" id="ai"/><g id="n"><use transform="matrix(0.008680555555555556,0,0,0.008680555555555556,0,0)" xlink:href="#ab"/><use transform="matrix(0.008680555555555556,0,0,0.008680555555555556,6.805555555555556,0)" xlink:href="#aa"/><use transform="matrix(0.008680555555555556,0,0,0.008680555555555556,17.569444444444446,0)" xlink:href="#W"/><use transform="matrix(0.008680555555555556,0,0,0.008680555555555556,27.890625,0)" xlink:href="#Y"/><use transform="matrix(0.008680555555555556,0,0,0.008680555555555556,39.27951388888889,0)" xlink:href="#ai"/></g><path fill="#333" d="M443 0L31-1118h319c90 293 199 572 268 885 66-313 175-593 264-885h315L784 0H443" id="aj"/><g id="o"><use transform="matrix(0.008680555555555556,0,0,0.008680555555555556,0,0)" xlink:href="#ab"/><use transform="matrix(0.008680555555555556,0,0,0.008680555555555556,6.805555555555556,0)" xlink:href="#aa"/><use transform="matrix(0.008680555555555556,0,0,0.008680555555555556,17.395833333333336,0)" xlink:href="#ae"/><use transform="matrix(0.008680555555555556,0,0,0.008680555555555556,27.352430555555557,0)" xlink:href="#aa"/><use transform="matrix(0.008680555555555556,0,0,0.008680555555555556,37.942708333333336,0)" xlink:href="#ab"/><use transform="matrix(0.008680555555555556,0,0,0.008680555555555556,45.46006944444445,0)" xlink:href="#aj"/><use transform="matrix(0.008680555555555556,0,0,0.008680555555555556,55.798611111111114,0)" xlink:href="#aa"/></g><path fill="#333" d="M135 0v-1490h997v253H440v360h640v249H440v375h694V0H135" id="ak"/><g id="p"><use transform="matrix(0.008680555555555556,0,0,0.008680555555555556,0,0)" xlink:href="#ak"/><use transform="matrix(0.008680555555555556,0,0,0.008680555555555556,10.79861111111111,0)" xlink:href="#X"/><use transform="matrix(0.008680555555555556,0,0,0.008680555555555556,21.866319444444443,0)" xlink:href="#af"/><use transform="matrix(0.008680555555555556,0,0,0.008680555555555556,28.203125,0)" xlink:href="#aa"/><use transform="matrix(0.008680555555555556,0,0,0.008680555555555556,38.79340277777778,0)" xlink:href="#ab"/></g><path fill="#333" d="M754 19C571 19 479-89 437-179h-14V0H128v-1490h300v560h9c41-89 129-202 319-202 248 0 453 193 453 575 0 372-197 576-455 576zm-92-241c156 0 240-139 240-336 0-196-83-334-240-334-154 0-241 131-241 334 0 202 88 336 241 336" id="al"/><g id="q"><use transform="matrix(0.008680555555555556,0,0,0.008680555555555556,0,0)" xlink:href="#al"/><use transform="matrix(0.008680555555555556,0,0,0.008680555555555556,11.380208333333334,0)" xlink:href="#W"/><use transform="matrix(0.008680555555555556,0,0,0.008680555555555556,21.70138888888889,0)" xlink:href="#af"/><use transform="matrix(0.008680555555555556,0,0,0.008680555555555556,27.586805555555557,0)" xlink:href="#af"/><use transform="matrix(0.008680555555555556,0,0,0.008680555555555556,34.140625,0)" xlink:href="#Z"/><use transform="matrix(0.008680555555555556,0,0,0.008680555555555556,38.958333333333336,0)" xlink:href="#aa"/></g><g id="r"><use transform="matrix(0.010850694444444444,0,0,0.010850694444444444,0,0)" xlink:href="#U"/><use transform="matrix(0.010850694444444444,0,0,0.010850694444444444,14.539930555555555,0)" xlink:href="#P"/><use transform="matrix(0.010850694444444444,0,0,0.010850694444444444,27.018229166666664,0)" xlink:href="#z"/><use transform="matrix(0.010850694444444444,0,0,0.010850694444444444,33.74565972222222,0)" xlink:href="#z"/><use transform="matrix(0.010850694444444444,0,0,0.010850694444444444,41.015625,0)" xlink:href="#v"/><use transform="matrix(0.010850694444444444,0,0,0.010850694444444444,46.39756944444444,0)" xlink:href="#x"/><use transform="matrix(0.010850694444444444,0,0,0.010850694444444444,59.35329861111111,0)" xlink:href="#E"/><use transform="matrix(0.010850694444444444,0,0,0.010850694444444444,73.61111111111111,0)" xlink:href="#x"/><use transform="matrix(0.010850694444444444,0,0,0.010850694444444444,86.56684027777779,0)" xlink:href="#F"/><use transform="matrix(0.010850694444444444,0,0,0.010850694444444444,95.27994791666669,0)" xlink:href="#G"/><use transform="matrix(0.010850694444444444,0,0,0.010850694444444444,107.76909722222224,0)" xlink:href="#w"/><use transform="matrix(0.010850694444444444,0,0,0.010850694444444444,113.15104166666669,0)" xlink:href="#H"/><use transform="matrix(0.010850694444444444,0,0,0.010850694444444444,125.84635416666669,0)" xlink:href="#x"/></g><path fill="#333" d="M786 20C389 20 94-260 94-744c0-487 299-766 692-766 339 0 597 194 641 529h-309c-28-162-156-258-326-258-233 0-388 179-388 495 0 323 157 493 387 493 170 0 298-97 328-259h309c-34 277-266 530-642 530" id="am"/><g id="s"><use transform="matrix(0.008680555555555556,0,0,0.008680555555555556,0,0)" xlink:href="#am"/><use transform="matrix(0.008680555555555556,0,0,0.008680555555555556,13.151041666666668,0)" xlink:href="#ab"/><use transform="matrix(0.008680555555555556,0,0,0.008680555555555556,19.95659722222222,0)" xlink:href="#aa"/><use transform="matrix(0.008680555555555556,0,0,0.008680555555555556,30.72048611111111,0)" xlink:href="#W"/><use transform="matrix(0.008680555555555556,0,0,0.008680555555555556,41.04166666666666,0)" xlink:href="#af"/><use transform="matrix(0.008680555555555556,0,0,0.008680555555555556,47.378472222222214,0)" xlink:href="#aa"/></g><g id="t"><use transform="matrix(0.010850694444444444,0,0,0.010850694444444444,0,0)" xlink:href="#U"/><use transform="matrix(0.010850694444444444,0,0,0.010850694444444444,14.539930555555555,0)" xlink:href="#P"/><use transform="matrix(0.010850694444444444,0,0,0.010850694444444444,27.018229166666664,0)" xlink:href="#z"/><use transform="matrix(0.010850694444444444,0,0,0.010850694444444444,33.74565972222222,0)" xlink:href="#z"/><use transform="matrix(0.010850694444444444,0,0,0.010850694444444444,41.015625,0)" xlink:href="#v"/><use transform="matrix(0.010850694444444444,0,0,0.010850694444444444,46.39756944444444,0)" xlink:href="#x"/><use transform="matrix(0.010850694444444444,0,0,0.010850694444444444,59.35329861111111,0)" xlink:href="#I"/><use transform="matrix(0.010850694444444444,0,0,0.010850694444444444,73.32899305555554,0)" xlink:href="#x"/><use transform="matrix(0.010850694444444444,0,0,0.010850694444444444,86.28472222222221,0)" xlink:href="#M"/><use transform="matrix(0.010850694444444444,0,0,0.010850694444444444,99.89149305555556,0)" xlink:href="#K"/><use transform="matrix(0.010850694444444444,0,0,0.010850694444444444,113.21614583333331,0)" xlink:href="#J"/><use transform="matrix(0.010850694444444444,0,0,0.010850694444444444,124.94574652777776,0)" xlink:href="#w"/><use transform="matrix(0.010850694444444444,0,0,0.010850694444444444,130.3276909722222,0)" xlink:href="#z"/><use transform="matrix(0.010850694444444444,0,0,0.010850694444444444,137.3806423611111,0)" xlink:href="#K"/><use transform="matrix(0.010850694444444444,0,0,0.010850694444444444,150.70529513888886,0)" xlink:href="#F"/><use transform="matrix(0.010850694444444444,0,0,0.010850694444444444,159.41840277777774,0)" xlink:href="#N"/></g></defs></g></svg>