<svg xmlns="http://www.w3.org/2000/svg" xmlns:xlink="http://www.w3.org/1999/xlink" xmlns:lucid="lucid" width="2108.2" height="1500.07"><g transform="translate(2142 918.0666666666666)" lucid:page-tab-id="0_0"><path d="M-2500-1000H0v2000h-2500z" fill="#fff"/><path d="M-2140-916.07H-60V580h-2080z" stroke="#000" stroke-width="4" fill-opacity="0"/><path d="M-995.56-740.07v19.5m0 19.47v38.96m0 19.48v38.96m0 19.5v38.95m0 19.48v38.96m0 19.47v38.97m0 19.48v38.96m0 19.48v38.97m0 19.48v38.97m0 19.48v38.97m0 19.48v38.96m0 19.48v38.96m0 19.48v38.97m0 19.48V39.2m0 19.47v38.97m0 19.48v38.96m0 19.48v38.97m0 19.48v38.97m0 19.48v19.48" stroke="#1071e5" stroke-width="4" fill="none"/><path d="M-993.6-740h-3.94v-2.07h3.95zM-993.6 313.93h-3.94v-2.05h3.95z" stroke="#1071e5" stroke-width=".05" fill="#1071e5"/><path d="M-1971.2-740.07v19.5m0 19.47v38.96m0 19.48v38.96m0 19.5v38.95m0 19.48v38.96m0 19.47v38.97m0 19.48v38.96m0 19.48v38.97m0 19.48v38.97m0 19.48v38.97m0 19.48v38.96m0 19.48v38.96m0 19.48v38.97m0 19.48V39.2m0 19.47v38.97m0 19.48v38.96m0 19.48v38.97m0 19.48v38.97m0 19.48v19.48" stroke="#1071e5" stroke-width="4" fill="none"/><path d="M-1969.22-740h-3.95v-2.07h3.95zM-1969.22 313.93h-3.95v-2.05h3.95z" stroke="#1071e5" stroke-width=".05" fill="#1071e5"/><path d="M-704.77-740.07v19.5m0 19.47v38.96m0 19.48v38.96m0 19.5v38.95m0 19.48v38.96m0 19.47v38.97m0 19.48v38.96m0 19.48v38.97m0 19.48v38.97m0 19.48v38.97m0 19.48v38.96m0 19.48v38.96m0 19.48v38.97m0 19.48V39.2m0 19.47v38.97m0 19.48v38.96m0 19.48v38.97m0 19.48v38.97m0 19.48v19.48" stroke="#1071e5" stroke-width="4" fill="none"/><path d="M-702.8-740h-3.95v-2.07h3.95zM-702.8 313.93h-3.95v-2.05h3.95z" stroke="#1071e5" stroke-width=".05" fill="#1071e5"/><path d="M-1327.37-740.07v19.5m0 19.47v38.96m0 19.48v38.96m0 19.5v38.95m0 19.48v38.96m0 19.47v38.97m0 19.48v38.96m0 19.48v38.97m0 19.48v38.97m0 19.48v38.97m0 19.48v38.96m0 19.48v38.96m0 19.48v38.97m0 19.48V39.2m0 19.47v38.97m0 19.48v38.96m0 19.48v38.97m0 19.48v38.97m0 19.48v19.48" stroke="#1071e5" stroke-width="4" fill="none"/><path d="M-1325.4-740h-3.94v-2.07h3.94zM-1325.4 313.93h-3.94v-2.05h3.94z" stroke="#1071e5" stroke-width=".05" fill="#1071e5"/><path d="M-2031.2-838.07a6 6 0 0 1 6-6h108a6 6 0 0 1 6 6v88a6 6 0 0 1-6 6h-108a6 6 0 0 1-6-6z" stroke="#1071e5" stroke-width="4" fill="#cfe4ff"/><use xlink:href="#a" transform="matrix(1,0,0,1,-2031.1989227829026,-844.0666666666666) translate(29.829218749999995 59.02777777777778)"/><path d="M-390.44-740.07v19.5m0 19.47v38.96m0 19.48v38.96m0 19.5v38.95m0 19.48v38.96m0 19.47v38.97m0 19.48v38.96m0 19.48v38.97m0 19.48v38.97m0 19.48v38.97m0 19.48v38.96m0 19.48v38.96m0 19.48v38.97m0 19.48V39.2m0 19.47v38.97m0 19.48v38.96m0 19.48v38.97m0 19.48v38.97m0 19.48v19.48" stroke="#1071e5" stroke-width="4" fill="none"/><path d="M-388.47-740h-3.95v-2.07h3.95zM-388.47 313.93h-3.95v-2.05h3.95z" stroke="#1071e5" stroke-width=".05" fill="#1071e5"/><path d="M-1682.06-740.07v19.5m0 19.47v38.96m0 19.48v38.96m0 19.5v38.95m0 19.48v38.96m0 19.47v38.97m0 19.48v38.96m0 19.48v38.97m0 19.48v38.97m0 19.48v38.97m0 19.48v38.96m0 19.48v38.96m0 19.48v38.97m0 19.48V39.2m0 19.47v38.97m0 19.48v38.96m0 19.48v38.97m0 19.48v38.97m0 19.48v19.48" stroke="#1071e5" stroke-width="4" fill="none"/><path d="M-1680.08-740h-3.95v-2.07h3.95zM-1680.08 313.93h-3.95v-2.05h3.95z" stroke="#1071e5" stroke-width=".05" fill="#1071e5"/><path d="M-2031.2 321.93a6 6 0 0 1 6-6h108a6 6 0 0 1 6 6v88a6 6 0 0 1-6 6h-108a6 6 0 0 1-6-6z" stroke="#1071e5" stroke-width="4" fill="#cfe4ff"/><use xlink:href="#a" transform="matrix(1,0,0,1,-2031.1989227829026,315.9333333333334) translate(29.829218749999995 59.02777777777778)"/><path d="M-1791.2-838.07a6 6 0 0 1 6-6h206.3a6 6 0 0 1 6 6v88a6 6 0 0 1-6 6h-206.3a6 6 0 0 1-6-6z" stroke="#1071e5" stroke-width="4" fill="#cfe4ff"/><use xlink:href="#b" transform="matrix(1,0,0,1,-1791.1989227829026,-844.0666666666666) translate(20.560989583333345 59.02777777777778)"/><path d="M-1791.2 321.93a6 6 0 0 1 6-6h206.3a6 6 0 0 1 6 6v88a6 6 0 0 1-6 6h-206.3a6 6 0 0 1-6-6z" stroke="#1071e5" stroke-width="4" fill="#cfe4ff"/><use xlink:href="#b" transform="matrix(1,0,0,1,-1791.1989227829026,315.9333333333334) translate(20.560989583333345 59.02777777777778)"/><path d="M-1452.9-838.07a6 6 0 0 1 6-6h239.07a6 6 0 0 1 6 6v88a6 6 0 0 1-6 6h-239.08a6 6 0 0 1-6-6z" stroke="#1071e5" stroke-width="4" fill="#cfe4ff"/><use xlink:href="#c" transform="matrix(1,0,0,1,-1452.9133325051248,-844.0666666666666) translate(20.660164930555588 59.02777777777778)"/><path d="M-1452.9 321.93a6 6 0 0 1 6-6h239.07a6 6 0 0 1 6 6v88a6 6 0 0 1-6 6h-239.08a6 6 0 0 1-6-6z" stroke="#1071e5" stroke-width="4" fill="#cfe4ff"/><use xlink:href="#c" transform="matrix(1,0,0,1,-1452.9133325051248,315.9333333333334) translate(20.660164930555588 59.02777777777778)"/><path d="M-1081.83-838.07a6 6 0 0 1 6-6h160.53a6 6 0 0 1 6 6v88a6 6 0 0 1-6 6h-160.53a6 6 0 0 1-6-6z" stroke="#1071e5" stroke-width="4" fill="#cfe4ff"/><use xlink:href="#d" transform="matrix(1,0,0,1,-1081.8260929217915,-844.0666666666666) translate(20.939678819444445 59.02777777777778)"/><path d="M-1081.83 321.93a6 6 0 0 1 6-6h160.53a6 6 0 0 1 6 6v88a6 6 0 0 1-6 6h-160.53a6 6 0 0 1-6-6z" stroke="#1071e5" stroke-width="4" fill="#cfe4ff"/><use xlink:href="#d" transform="matrix(1,0,0,1,-1081.8260929217915,315.9333333333334) translate(20.939678819444445 59.02777777777778)"/><path d="M-789.3-838.07a6 6 0 0 1 6-6h157.05a6 6 0 0 1 6 6v88a6 6 0 0 1-6 6H-783.3a6 6 0 0 1-6-6z" stroke="#1071e5" stroke-width="4" fill="#cfe4ff"/><use xlink:href="#e" transform="matrix(1,0,0,1,-789.2978811162361,-844.0666666666666) translate(20.681215277777774 59.02777777777778)"/><path d="M-789.3 321.93a6 6 0 0 1 6-6h157.05a6 6 0 0 1 6 6v88a6 6 0 0 1-6 6H-783.3a6 6 0 0 1-6-6z" stroke="#1071e5" stroke-width="4" fill="#cfe4ff"/><use xlink:href="#e" transform="matrix(1,0,0,1,-789.2978811162361,315.9333333333334) translate(20.681215277777774 59.02777777777778)"/><path d="M-500.25-838.07a6 6 0 0 1 6-6h207.62a6 6 0 0 1 6 6v88a6 6 0 0 1-6 6h-207.62a6 6 0 0 1-6-6z" stroke="#1071e5" stroke-width="4" fill="#cfe4ff"/><use xlink:href="#f" transform="matrix(1,0,0,1,-500.2527422273472,-844.0666666666666) translate(20.893671875000003 59.02777777777778)"/><path d="M-500.25 321.93a6 6 0 0 1 6-6h207.62a6 6 0 0 1 6 6v88a6 6 0 0 1-6 6h-207.62a6 6 0 0 1-6-6z" stroke="#1071e5" stroke-width="4" fill="#cfe4ff"/><use xlink:href="#f" transform="matrix(1,0,0,1,-500.2527422273472,315.9333333333334) translate(20.893671875000003 59.02777777777778)"/><path d="M-1969.2-682.3h264.4M-1969.15-682.3h-2.05" stroke="#1071e5" stroke-width="4" fill="none"/><path d="M-1688.53-682.3l-14.26 4.64v-9.27z" stroke="#1071e5" stroke-width="4" fill="#1071e5"/><use xlink:href="#g" transform="matrix(1,0,0,1,-1969.12281478148,-712.4315371912451) translate(0 17.21640914091409)"/><use xlink:href="#h" transform="matrix(1,0,0,1,-1969.12281478148,-712.4315371912451) translate(52.91616075670067 17.21640914091409)"/><use xlink:href="#i" transform="matrix(1,0,0,1,-1969.12281478148,-712.4315371912451) translate(160.35384300148763 17.21640914091409)"/><path d="M-1684.06-622.52h-22.03m-22.02 0h-44.07m-22.02 0h-44.07m-22.03 0h-44.06m-22.03 0h-22.03M-1684.1-622.52h2.04" stroke="#1071e5" stroke-width="4" fill="none"/><path d="M-1964.73-622.52l14.27-4.63v9.27z" stroke="#1071e5" stroke-width="4" fill="#1071e5"/><use xlink:href="#j" transform="matrix(1,0,0,1,-1887.761397389739,-648.0226917095833) translate(0 17.21640914091409)"/><use xlink:href="#k" transform="matrix(1,0,0,1,-1887.761397389739,-648.0226917095833) translate(38.58072330670567 17.21640914091409)"/><path d="M-1680.06-562.75h329.95M-1680-562.75h-2.06" stroke="#1071e5" stroke-width="4" fill="none"/><path d="M-1333.84-562.75l-14.27 4.64v-9.28z" stroke="#1071e5" stroke-width="4" fill="#1071e5"/><use xlink:href="#l" transform="matrix(1,0,0,1,-1589.3197695355464,-588.2491011435459) translate(0 17.21640914091409)"/><path d="M-1325.37-502.97h307.07M-1325.32-502.97h-2.05" stroke="#1071e5" stroke-width="4" fill="none"/><path d="M-1002.03-502.97l-14.27 4.63v-9.27z" stroke="#1071e5" stroke-width="4" fill="#1071e5"/><use xlink:href="#m" transform="matrix(1,0,0,1,-1294.4895111190795,-528.475510577508) translate(0 17.21640914091409)"/><use xlink:href="#n" transform="matrix(1,0,0,1,-1294.4895111190795,-528.475510577508) translate(159.80715259025905 17.21640914091409)"/><use xlink:href="#o" transform="matrix(1,0,0,1,-1294.4895111190795,-528.475510577508) translate(180.97188136782432 17.21640914091409)"/><path d="M-993.56-443.2h266.05M-993.5-443.2h-2.06" stroke="#1071e5" stroke-width="4" fill="none"/><path d="M-711.25-443.2l-14.26 4.64v-9.27z" stroke="#1071e5" stroke-width="4" fill="#1071e5"/><use xlink:href="#p" transform="matrix(1,0,0,1,-973.0394886754298,-473.3371749270944) translate(0 17.21640914091409)"/><path d="M-706.77-383.43h-19.93m-19.93 0h-39.86m-19.92 0h-39.86m-19.92 0h-39.86m-19.93 0h-39.85m-19.92 0h-39.86m-19.93 0h-39.86m-19.93 0h-39.85m-19.93 0H-1205m-19.92 0h-39.86m-19.92 0h-19.93M-706.83-383.43h2.06" stroke="#1071e5" stroke-width="4" fill="none"/><path d="M-1320.9-383.43l14.27-4.63v9.27z" stroke="#1071e5" stroke-width="4" fill="#1071e5"/><use xlink:href="#q" transform="matrix(1,0,0,1,-1125.9486072240031,-408.9283294454326) translate(0 17.21640914091409)"/><path d="M-1325.37-323.65h912.2M-1325.32-323.65h-2.05" stroke="#1071e5" stroke-width="4" fill="none"/><path d="M-396.92-323.65l-14.26 4.63v-9.27z" stroke="#1071e5" stroke-width="4" fill="#1071e5"/><use xlink:href="#r" transform="matrix(1,0,0,1,-981.3604843492157,-349.1547388793948) translate(0 17.21640914091409)"/><path d="M-392.44-263.88h-20.27m-20.28 0h-40.55m-20.27 0h-40.54m-20.27 0h-40.55m-20.27 0h-40.54m-20.27 0h-40.55m-20.27 0h-40.54m-20.26 0h-40.54m-20.27 0h-40.54m-20.28 0h-40.55m-20.27 0h-40.54m-20.27 0h-40.55m-20.27 0h-40.54m-20.28 0h-40.54m-20.27 0h-40.54m-20.26 0h-20.27M-392.5-263.88h2.06" stroke="#1071e5" stroke-width="4" fill="none"/><path d="M-1320.9-263.88l14.27-4.63v9.26z" stroke="#1071e5" stroke-width="4" fill="#1071e5"/><use xlink:href="#s" transform="matrix(1,0,0,1,-937.742399396189,-289.3811483133571) translate(0 17.21640914091409)"/><use xlink:href="#t" transform="matrix(1,0,0,1,-937.742399396189,-289.3811483133571) translate(81.77794341934194 17.21640914091409)"/><path d="M-1325.37-204.1h307.07M-1325.32-204.1h-2.05" stroke="#1071e5" stroke-width="4" fill="none"/><path d="M-1002.03-204.1l-14.27 4.63v-9.27z" stroke="#1071e5" stroke-width="4" fill="#1071e5"/><use xlink:href="#u" transform="matrix(1,0,0,1,-1313.3069421785924,-234.2428126629436) translate(0 17.21640914091409)"/><use xlink:href="#v" transform="matrix(1,0,0,1,-1313.3069421785924,-234.2428126629436) translate(199.90646037259975 17.21640914091409)"/><use xlink:href="#w" transform="matrix(1,0,0,1,-1313.3069421785924,-234.2428126629436) translate(224.49017362673766 17.21640914091409)"/><path d="M-993.56-144.33h266.05M-993.5-144.33h-2.06" stroke="#1071e5" stroke-width="4" fill="none"/><path d="M-711.25-144.33l-14.26 4.63v-9.27z" stroke="#1071e5" stroke-width="4" fill="#1071e5"/><use xlink:href="#p" transform="matrix(1,0,0,1,-973.0394886754298,-174.46922209690595) translate(0 17.21640914091409)"/><path d="M-706.77-84.56h-19.93m-19.93 0h-39.86m-19.92 0h-39.86m-19.92 0h-39.86m-19.93 0h-39.85m-19.92 0h-39.86m-19.93 0h-39.86m-19.93 0h-39.85m-19.93 0H-1205m-19.92 0h-39.86m-19.92 0h-19.93M-706.83-84.56h2.06" stroke="#1071e5" stroke-width="4" fill="none"/><path d="M-1320.9-84.56l14.27-4.63v9.28z" stroke="#1071e5" stroke-width="4" fill="#1071e5"/><use xlink:href="#q" transform="matrix(1,0,0,1,-1125.9486072240034,-110.06037661524405) translate(0 17.21640914091409)"/><path d="M-1329.37-24.78h-22m-22 0h-44m-21.98 0h-44m-22 0h-44m-21.98 0h-44m-22 0h-22M-1329.42-24.78h2.05" stroke="#1071e5" stroke-width="4" fill="none"/><path d="M-1675.58-24.78l14.26-4.64v9.27z" stroke="#1071e5" stroke-width="4" fill="#1071e5"/><use xlink:href="#x" transform="matrix(1,0,0,1,-1576.5679987529993,-50.28678604920639) translate(0 17.21640914091409)"/><path d="M-420.44 1.93a6 6 0 0 1 6-6h64.82a6 6 0 0 1 6 6v15.53a14.48 14.48 0 0 1-4.24 10.24l-1.52 1.52a14.48 14.48 0 0 1-10.24 4.24h-54.82a6 6 0 0 1-6-6z" fill="#cfe4ff"/><path d="M-343.62-4.07v27.53l-10 10h-66.82" stroke="#1071e5" stroke-width="4" fill="none"/><path d="M-420.44 1.93a6 6 0 0 1 6-6h203a6 6 0 0 1 6 6v128a6 6 0 0 1-6 6h-203a6 6 0 0 1-6-6z" stroke="#1071e5" stroke-width="4" fill="none"/><use xlink:href="#y" transform="matrix(1,0,0,1,-412.442629380125,-4.066666666666606) translate(0 27.08376736111111)"/><use xlink:href="#z" transform="matrix(1,0,0,1,-408.442629380125,41.46111111111117) translate(0 21.52777777777778)"/><use xlink:href="#A" transform="matrix(1,0,0,1,-408.442629380125,41.46111111111117) translate(0 48.415798611111114)"/><use xlink:href="#B" transform="matrix(1,0,0,1,-408.442629380125,41.46111111111117) translate(0 75.30381944444446)"/><use xlink:href="#C" transform="matrix(1,0,0,1,-408.442629380125,41.46111111111117) translate(41.10243055555556 75.30381944444446)"/><use xlink:href="#D" transform="matrix(1,0,0,1,-408.442629380125,41.46111111111117) translate(67.73003472222223 75.30381944444446)"/><path d="M-388.44 74.84h118v39.85h-97.26M-388.4 74.84h-2.04" stroke="#1071e5" stroke-width="4" fill="none"/><path d="M-383.97 114.7l14.27-4.65v9.27z" stroke="#1071e5" stroke-width="4" fill="#1071e5"/><g><use xlink:href="#E" transform="matrix(1,0,0,1,-262.442629380125,84.0119731703654) translate(0 17.21640914091409)"/><use xlink:href="#F" transform="matrix(1,0,0,1,-262.442629380125,84.0119731703654) translate(73.64700825551306 17.21640914091409)"/><use xlink:href="#G" transform="matrix(1,0,0,1,-262.442629380125,84.0119731703654) translate(121.60824480885589 17.21640914091409)"/><use xlink:href="#H" transform="matrix(1,0,0,1,-262.442629380125,84.0119731703654) translate(167.92941012851287 17.21640914091409)"/></g><path d="M-1680.06 174.46h118v39.85h-97.26M-1680 174.46h-2.06" stroke="#1071e5" stroke-width="4" fill="none"/><path d="M-1675.58 214.3l14.26-4.63v9.28z" stroke="#1071e5" stroke-width="4" fill="#1071e5"/><g><use xlink:href="#I" transform="matrix(1,0,0,1,-1554.0561276440137,183.63462411376142) translate(0 17.21640914091409)"/><use xlink:href="#J" transform="matrix(1,0,0,1,-1554.0561276440137,183.63462411376142) translate(60.205366239748976 17.21640914091409)"/></g><path d="M-1680.06 274.08h952.55M-1680 274.08h-2.06" stroke="#1071e5" stroke-width="4" fill="none"/><path d="M-711.25 274.08l-14.26 4.64v-9.27z" stroke="#1071e5" stroke-width="4" fill="#1071e5"/><g><use xlink:href="#K" transform="matrix(1,0,0,1,-1326.491446664197,248.5811667809821) translate(0 17.21640914091409)"/></g><defs><path fill="#333" d="M783 20c-382 0-661-292-661-764 0-473 279-766 661-766 302 0 548 182 601 489h-190c-42-204-217-313-411-313-268 0-476 208-476 590 0 381 209 588 476 588 195 0 369-110 411-313h190c-52 303-296 489-601 489" id="L"/><path fill="#333" d="M338-1490V0H158v-1490h180" id="M"/><path fill="#333" d="M158 0v-1118h180V0H158zm91-1301c-68 0-125-53-125-119s57-119 125-119c69 0 126 53 126 119s-57 119-126 119" id="N"/><path fill="#333" d="M628 24c-324 0-524-230-524-574 0-343 198-582 503-582 237 0 487 146 487 559v75H286c9 234 145 362 343 362 132 0 231-58 273-172l174 48C1024-91 857 24 628 24zM287-650h624c-17-190-120-322-304-322-192 0-309 151-320 322" id="O"/><path fill="#333" d="M338-670V0H158v-1118h173l1 207c72-158 192-221 342-221 226 0 378 139 378 422V0H872v-695c0-172-96-275-252-275-161 0-282 109-282 300" id="P"/><path fill="#333" d="M598-1118v154H368v674c0 100 37 144 132 144 23 0 62-6 92-12L629-6c-37 13-88 20-134 20-193 0-307-107-307-290v-688H20v-154h168v-266h180v266h230" id="Q"/><g id="a"><use transform="matrix(0.010850694444444444,0,0,0.010850694444444444,0,0)" xlink:href="#L"/><use transform="matrix(0.010850694444444444,0,0,0.010850694444444444,16.23263888888889,0)" xlink:href="#M"/><use transform="matrix(0.010850694444444444,0,0,0.010850694444444444,21.614583333333336,0)" xlink:href="#N"/><use transform="matrix(0.010850694444444444,0,0,0.010850694444444444,26.99652777777778,0)" xlink:href="#O"/><use transform="matrix(0.010850694444444444,0,0,0.010850694444444444,39.95225694444444,0)" xlink:href="#P"/><use transform="matrix(0.010850694444444444,0,0,0.010850694444444444,53.08159722222222,0)" xlink:href="#Q"/></g><path fill="#333" d="M613 24c-304 0-509-231-509-576 0-350 205-580 509-580 305 0 511 230 511 580 0 345-206 576-511 576zm0-161c226 0 329-195 329-415 0-222-103-419-329-419-223 0-326 196-326 419 0 220 103 415 326 415" id="R"/><path fill="#333" d="M158 0v-1118h175l1 205c55-151 181-225 313-225 147 0 245 90 285 228 53-141 190-228 352-228 194 0 352 125 352 384V0h-181v-749c0-161-105-225-225-225-151 0-243 103-243 244V0H807v-767c0-124-93-207-219-207-131 0-250 92-250 270V0H158" id="S"/><path fill="#333" d="M471 26C259 26 90-98 90-318c0-256 228-303 435-329 202-27 287-16 287-108 0-139-79-219-234-219-161 0-248 86-283 164l-173-57c86-203 278-265 451-265 150 0 419 46 419 395V0H815v-152h-12C765-73 660 26 471 26zm31-159c199 0 310-134 310-271v-155c-30 35-226 55-295 64-131 17-246 59-246 186 0 116 97 176 231 176" id="T"/><path fill="#333" d="M577 24c-279 0-473-224-473-580 0-354 195-576 474-576 218 0 287 134 324 193h14v-551h180V0H922v-173h-20C865-111 790 24 577 24zm27-161c203 0 314-172 314-421 0-247-108-413-314-413-212 0-317 181-317 413 0 235 108 421 317 421" id="U"/><path fill="#333" d="M784 20c-382 0-662-292-662-764 0-473 280-766 662-766s660 293 660 766c0 282-99 499-260 629l192 255h-198L1049-33C969 2 880 20 784 20zm-62-486h198l156 205c112-98 183-261 183-483 0-383-209-590-475-590-268 0-477 208-477 590 0 380 209 588 477 588 54 0 106-9 154-25" id="V"/><path fill="#333" d="M537 14c-226 0-379-139-379-422v-710h180v695c0 172 97 275 253 275 160 0 281-109 281-300v-670h181V0H879v-209C806-46 684 14 537 14" id="W"/><g id="b"><use transform="matrix(0.010850694444444444,0,0,0.010850694444444444,0,0)" xlink:href="#L"/><use transform="matrix(0.010850694444444444,0,0,0.010850694444444444,16.23263888888889,0)" xlink:href="#R"/><use transform="matrix(0.010850694444444444,0,0,0.010850694444444444,29.557291666666664,0)" xlink:href="#S"/><use transform="matrix(0.010850694444444444,0,0,0.010850694444444444,49.0234375,0)" xlink:href="#S"/><use transform="matrix(0.010850694444444444,0,0,0.010850694444444444,68.48958333333333,0)" xlink:href="#T"/><use transform="matrix(0.010850694444444444,0,0,0.010850694444444444,80.96788194444444,0)" xlink:href="#P"/><use transform="matrix(0.010850694444444444,0,0,0.010850694444444444,94.09722222222221,0)" xlink:href="#U"/><use transform="matrix(0.010850694444444444,0,0,0.010850694444444444,107.70399305555556,0)" xlink:href="#V"/><use transform="matrix(0.010850694444444444,0,0,0.010850694444444444,124.69618055555556,0)" xlink:href="#W"/><use transform="matrix(0.010850694444444444,0,0,0.010850694444444444,137.83637152777777,0)" xlink:href="#O"/><use transform="matrix(0.010850694444444444,0,0,0.010850694444444444,150.79210069444443,0)" xlink:href="#W"/><use transform="matrix(0.010850694444444444,0,0,0.010850694444444444,163.93229166666666,0)" xlink:href="#O"/></g><path fill="#333" d="M180 0v-1490h510c348 0 508 209 508 474 0 266-160 477-507 477H370V0H180zm190-706h312c236 0 327-133 327-310 0-176-91-307-329-307H370v617" id="X"/><path fill="#333" d="M158 0v-1118h174v172h12c41-113 157-188 290-188 26 0 70 2 91 3v181c-11-2-60-10-108-10-161 0-279 109-279 260V0H158" id="Y"/><path fill="#333" d="M158 418v-1536h174v179h20c37-59 106-193 324-193 279 0 474 222 474 576 0 356-194 580-473 580-213 0-288-135-325-197h-14v591H158zm492-555c209 0 317-186 317-421 0-232-105-413-317-413-206 0-314 166-314 413 0 249 111 421 314 421" id="Z"/><path fill="#333" d="M180 0v-1490h901v168H370v510h643v168H370V0H180" id="aa"/><path fill="#333" d="M458 0L52-1490h194c108 439 233 855 324 1313 92-459 221-873 331-1313h216c110 438 234 854 330 1307 92-455 216-869 323-1307h196L1558 0h-221l-256-944c-26-95-50-200-73-331-22 122-44 223-73 331L680 0H458" id="ab"/><path fill="#333" d="M158 0v-1490h180v865h22l478-493h223L593-638 1096 0H865L456-523 338-412V0H158" id="ac"/><g id="c"><use transform="matrix(0.010850694444444444,0,0,0.010850694444444444,0,0)" xlink:href="#X"/><use transform="matrix(0.010850694444444444,0,0,0.010850694444444444,14.192708333333332,0)" xlink:href="#Y"/><use transform="matrix(0.010850694444444444,0,0,0.010850694444444444,22.189670138888886,0)" xlink:href="#O"/><use transform="matrix(0.010850694444444444,0,0,0.010850694444444444,35.14539930555555,0)" xlink:href="#Z"/><use transform="matrix(0.010850694444444444,0,0,0.010850694444444444,48.96918402777778,0)" xlink:href="#T"/><use transform="matrix(0.010850694444444444,0,0,0.010850694444444444,61.447482638888886,0)" xlink:href="#Y"/><use transform="matrix(0.010850694444444444,0,0,0.010850694444444444,69.44444444444444,0)" xlink:href="#O"/><use transform="matrix(0.010850694444444444,0,0,0.010850694444444444,82.40017361111111,0)" xlink:href="#aa"/><use transform="matrix(0.010850694444444444,0,0,0.010850694444444444,95.51866319444444,0)" xlink:href="#M"/><use transform="matrix(0.010850694444444444,0,0,0.010850694444444444,100.90060763888889,0)" xlink:href="#O"/><use transform="matrix(0.010850694444444444,0,0,0.010850694444444444,113.85633680555556,0)" xlink:href="#O"/><use transform="matrix(0.010850694444444444,0,0,0.010850694444444444,126.81206597222224,0)" xlink:href="#Q"/><use transform="matrix(0.010850694444444444,0,0,0.010850694444444444,133.86501736111111,0)" xlink:href="#ab"/><use transform="matrix(0.010850694444444444,0,0,0.010850694444444444,154.63324652777777,0)" xlink:href="#R"/><use transform="matrix(0.010850694444444444,0,0,0.010850694444444444,167.95789930555554,0)" xlink:href="#Y"/><use transform="matrix(0.010850694444444444,0,0,0.010850694444444444,176.67100694444443,0)" xlink:href="#ac"/><use transform="matrix(0.010850694444444444,0,0,0.010850694444444444,188.36805555555551,0)" xlink:href="#O"/><use transform="matrix(0.010850694444444444,0,0,0.010850694444444444,201.32378472222217,0)" xlink:href="#Y"/></g><path fill="#333" d="M657 26c-323 0-524-166-541-416h195c15 169 171 246 346 246 202 0 356-106 356-265 5-203-294-238-475-293-239-73-380-191-380-389 0-252 224-419 512-419 294 0 499 171 508 396H992c-17-145-151-228-328-228-193 0-321 102-321 242 0 156 175 211 284 241l149 41c160 44 422 134 422 412 0 244-197 432-541 432" id="ad"/><path fill="#333" d="M481 0L54-1118h197c107 314 236 620 325 951 87-331 217-637 324-951h197L670 0H481" id="ae"/><path fill="#333" d="M613 24c-304 0-509-231-509-576 0-350 205-580 509-580 216 0 392 114 453 309l-173 49c-33-115-133-197-280-197-223 0-326 196-326 419 0 220 103 415 326 415 150 0 252-85 285-206l172 49C1010-95 832 24 613 24" id="af"/><g id="d"><use transform="matrix(0.010850694444444444,0,0,0.010850694444444444,0,0)" xlink:href="#aa"/><use transform="matrix(0.010850694444444444,0,0,0.010850694444444444,13.118489583333332,0)" xlink:href="#M"/><use transform="matrix(0.010850694444444444,0,0,0.010850694444444444,18.50043402777778,0)" xlink:href="#O"/><use transform="matrix(0.010850694444444444,0,0,0.010850694444444444,31.456163194444443,0)" xlink:href="#O"/><use transform="matrix(0.010850694444444444,0,0,0.010850694444444444,44.41189236111111,0)" xlink:href="#Q"/><use transform="matrix(0.010850694444444444,0,0,0.010850694444444444,51.681857638888886,0)" xlink:href="#ad"/><use transform="matrix(0.010850694444444444,0,0,0.010850694444444444,65.93967013888889,0)" xlink:href="#O"/><use transform="matrix(0.010850694444444444,0,0,0.010850694444444444,78.89539930555556,0)" xlink:href="#Y"/><use transform="matrix(0.010850694444444444,0,0,0.010850694444444444,87.60850694444446,0)" xlink:href="#ae"/><use transform="matrix(0.010850694444444444,0,0,0.010850694444444444,100.09765625000001,0)" xlink:href="#N"/><use transform="matrix(0.010850694444444444,0,0,0.010850694444444444,105.47960069444446,0)" xlink:href="#af"/><use transform="matrix(0.010850694444444444,0,0,0.010850694444444444,118.17491319444446,0)" xlink:href="#O"/></g><path fill="#333" d="M180 0v-1490h908v168H370v486h669v168H370v500h727V0H180" id="ag"/><path fill="#333" d="M180 0v-1490h528c311 0 458 177 458 395 0 191-114 278-244 313v14c139 9 302 137 302 371 0 225-148 397-499 397H180zm190-168h350c232 0 321-102 321-231 0-149-120-277-311-277H370v508zm0-668h328c160 0 286-101 286-255 0-129-87-231-280-231H370v486" id="ah"/><g id="e"><use transform="matrix(0.010850694444444444,0,0,0.010850694444444444,0,0)" xlink:href="#ag"/><use transform="matrix(0.010850694444444444,0,0,0.010850694444444444,13.35720486111111,0)" xlink:href="#ae"/><use transform="matrix(0.010850694444444444,0,0,0.010850694444444444,25.41232638888889,0)" xlink:href="#O"/><use transform="matrix(0.010850694444444444,0,0,0.010850694444444444,38.36805555555555,0)" xlink:href="#P"/><use transform="matrix(0.010850694444444444,0,0,0.010850694444444444,51.49739583333333,0)" xlink:href="#Q"/><use transform="matrix(0.010850694444444444,0,0,0.010850694444444444,58.76736111111111,0)" xlink:href="#ah"/><use transform="matrix(0.010850694444444444,0,0,0.010850694444444444,73.30729166666666,0)" xlink:href="#Y"/><use transform="matrix(0.010850694444444444,0,0,0.010850694444444444,81.30425347222221,0)" xlink:href="#R"/><use transform="matrix(0.010850694444444444,0,0,0.010850694444444444,94.62890624999997,0)" xlink:href="#ac"/><use transform="matrix(0.010850694444444444,0,0,0.010850694444444444,106.32595486111111,0)" xlink:href="#O"/><use transform="matrix(0.010850694444444444,0,0,0.010850694444444444,119.28168402777777,0)" xlink:href="#Y"/></g><path fill="#333" d="M180 0v-1490h510c348 0 508 194 508 460 0 198-88 351-276 417L1256 0h-220L726-579c-117 2-238 0-356 1V0H180zm190-747h312c235 0 327-108 327-283 0-177-92-293-329-293H370v576" id="ai"/><path fill="#333" d="M538 24C308 24 148-78 108-271l171-41c32 123 123 178 257 178 156 0 256-77 256-169 0-77-54-128-164-154l-186-44c-203-48-300-148-300-305 0-192 176-326 414-326 230 0 351 112 402 269l-163 42c-31-80-94-158-238-158-133 0-233 69-233 162 0 83 57 129 188 160l169 40c203 48 298 149 298 302 0 196-179 339-441 339" id="aj"/><g id="f"><use transform="matrix(0.010850694444444444,0,0,0.010850694444444444,0,0)" xlink:href="#ai"/><use transform="matrix(0.010850694444444444,0,0,0.010850694444444444,13.975694444444445,0)" xlink:href="#O"/><use transform="matrix(0.010850694444444444,0,0,0.010850694444444444,26.931423611111104,0)" xlink:href="#aj"/><use transform="matrix(0.010850694444444444,0,0,0.010850694444444444,38.66102430555555,0)" xlink:href="#R"/><use transform="matrix(0.010850694444444444,0,0,0.010850694444444444,51.98567708333333,0)" xlink:href="#W"/><use transform="matrix(0.010850694444444444,0,0,0.010850694444444444,65.12586805555554,0)" xlink:href="#Y"/><use transform="matrix(0.010850694444444444,0,0,0.010850694444444444,73.1228298611111,0)" xlink:href="#af"/><use transform="matrix(0.010850694444444444,0,0,0.010850694444444444,85.8181423611111,0)" xlink:href="#O"/><use transform="matrix(0.010850694444444444,0,0,0.010850694444444444,98.77387152777777,0)" xlink:href="#ad"/><use transform="matrix(0.010850694444444444,0,0,0.010850694444444444,113.03168402777777,0)" xlink:href="#O"/><use transform="matrix(0.010850694444444444,0,0,0.010850694444444444,125.98741319444444,0)" xlink:href="#Y"/><use transform="matrix(0.010850694444444444,0,0,0.010850694444444444,134.70052083333334,0)" xlink:href="#ae"/><use transform="matrix(0.010850694444444444,0,0,0.010850694444444444,147.18967013888889,0)" xlink:href="#N"/><use transform="matrix(0.010850694444444444,0,0,0.010850694444444444,152.57161458333334,0)" xlink:href="#af"/><use transform="matrix(0.010850694444444444,0,0,0.010850694444444444,165.26692708333334,0)" xlink:href="#O"/></g><path fill="#333" d="M135 0v-1490h581c339 0 533 210 533 503 0 295-197 500-540 500H440V0H135zm305-733h220c186 0 274-104 274-254s-88-251-275-251H440v505" id="ak"/><path fill="#333" d="M789 20C394 20 94-260 94-744c0-487 300-766 695-766s695 279 695 766c0 485-300 764-695 764zm0-271c231 0 385-174 385-493 0-321-154-495-385-495s-385 175-385 495c0 319 154 493 385 493" id="al"/><path fill="#333" d="M681 22C323 22 94-145 85-462h297c10 151 131 226 296 226 163 0 271-77 271-190 0-102-95-149-257-189l-164-41c-252-61-403-188-403-405 0-269 236-449 560-449 330 0 546 183 551 445H941c-11-119-106-188-259-188-156 0-244 72-244 172-3 156 226 185 373 221 250 61 445 186 445 436 0 271-213 446-575 446" id="am"/><path fill="#333" d="M75-1237v-253h1217v253H837V0H531v-1237H75" id="an"/><g id="g"><use transform="matrix(0.008677625575057506,0,0,0.008677625575057506,0,0)" xlink:href="#ak"/><use transform="matrix(0.008677625575057506,0,0,0.008677625575057506,11.51520913810131,0)" xlink:href="#al"/><use transform="matrix(0.008677625575057506,0,0,0.008677625575057506,25.208502295542058,0)" xlink:href="#am"/><use transform="matrix(0.008677625575057506,0,0,0.008677625575057506,36.845198191694166,0)" xlink:href="#an"/></g><path fill="#333" d="M768-1560L288 224H28l480-1784h260" id="ao"/><path fill="#333" d="M628 22C291 22 81-210 81-554c0-346 210-578 547-578 265 0 455 142 497 372l-279 52c-25-116-99-188-215-188-160 0-244 139-244 341 0 200 84 341 244 341 116 0 193-74 217-195l279 51C1085-123 896 22 628 22" id="ap"/><path fill="#333" d="M628 22C291 22 81-210 81-554c0-346 210-578 547-578 336 0 547 232 547 578 0 344-211 576-547 576zm0-236c160 0 242-146 242-341 0-197-82-341-242-341S387-753 387-555c0 195 81 341 241 341" id="aq"/><path fill="#333" d="M128 0v-1118h278l12 217c60-163 185-234 319-234 143 0 236 81 288 251 63-172 205-251 359-251 205 0 357 138 357 381V0h-301v-697c0-126-76-187-177-187-114 0-184 79-184 196V0H789v-705c0-109-72-179-174-179-106 0-187 74-187 208V0H128" id="ar"/><path fill="#333" d="M440 22C227 22 68-92 68-313c0-250 202-322 422-343 195-21 271-24 271-105 0-95-63-149-175-149-116 0-187 57-211 129l-275-46c57-194 237-305 487-305 240 0 474 108 474 379V0H777v-155h-10C713-51 605 22 440 22zm85-211c140 0 238-93 238-211v-121c-37 26-156 42-222 51-111 16-185 59-185 149 0 87 70 132 169 132" id="as"/><path fill="#333" d="M428-647V0H128v-1118h283l4 231c63-156 176-245 348-245 232 0 384 159 384 421V0H847v-659c0-139-76-222-202-222-128 0-217 86-217 234" id="at"/><path fill="#333" d="M537 19C279 19 81-185 81-557c0-382 206-575 454-575 190 0 278 113 318 202h10v-560h300V0H868v-179h-15C812-89 719 19 537 19zm92-241c153 0 240-134 240-336 0-203-86-334-240-334-158 0-240 138-240 334 0 197 84 336 240 336" id="au"/><path fill="#333" d="M572 22C302 22 117-98 78-306l279-48c29 105 101 156 224 156 114 0 185-48 185-115 0-118-228-130-337-155-215-49-322-150-322-317 0-215 187-347 470-347 265 0 424 116 466 298l-266 47c-24-76-87-130-196-130-98 0-174 46-174 113 0 56 38 95 144 117l201 40c216 44 320 143 320 302 0 220-207 367-500 367" id="av"/><g id="h"><use transform="matrix(0.008677625575057506,0,0,0.008677625575057506,0,0)" xlink:href="#ao"/><use transform="matrix(0.008677625575057506,0,0,0.008677625575057506,6.898712332170717,0)" xlink:href="#ap"/><use transform="matrix(0.008677625575057506,0,0,0.008677625575057506,17.355251150115013,0)" xlink:href="#aq"/><use transform="matrix(0.008677625575057506,0,0,0.008677625575057506,28.25434887238724,0)" xlink:href="#ar"/><use transform="matrix(0.008677625575057506,0,0,0.008677625575057506,44.47283107216972,0)" xlink:href="#ar"/><use transform="matrix(0.008677625575057506,0,0,0.008677625575057506,60.6913132719522,0)" xlink:href="#as"/><use transform="matrix(0.008677625575057506,0,0,0.008677625575057506,71.00901008069557,0)" xlink:href="#at"/><use transform="matrix(0.008677625575057506,0,0,0.008677625575057506,82.07298268889387,0)" xlink:href="#au"/><use transform="matrix(0.008677625575057506,0,0,0.008677625575057506,93.27579730629314,0)" xlink:href="#av"/></g><path fill="#333" d="M169-607c0-330 107-732 258-974h279c-145 311-231 674-231 974 0 262 67 512 231 886H427C258-1 169-307 169-607" id="aw"/><path fill="#333" d="M128 0v-1118h290v195h12c54-169 184-238 367-200v268c-27-8-86-15-130-15-138 0-239 95-239 234V0H128" id="ax"/><path fill="#333" d="M633 22C291 22 81-200 81-553c0-345 210-579 537-579 292 0 525 185 525 567v84H378c7 183 109 277 260 277 105 0 184-46 216-132l272 51C1071-99 893 22 633 22zM380-669h474c-15-146-94-237-233-237-143 0-229 99-241 237" id="ay"/><path fill="#333" d="M128 418v-1536h295v188h14c41-89 129-202 319-202 248 0 453 193 453 575 0 372-197 576-455 576-183 0-275-108-317-198h-9v597H128zm534-640c156 0 240-139 240-336 0-196-83-334-240-334-154 0-241 131-241 334 0 202 88 336 241 336" id="az"/><path fill="#333" d="M135 0v-1490h980v253H440v416h609v249H440V0H135" id="aA"/><path fill="#333" d="M428-1490V0H128v-1490h300" id="aB"/><path fill="#333" d="M683-1118v229H474v562c0 71 29 104 102 104 23 0 73-7 95-13l43 225C647 9 580 16 520 16 296 16 174-96 174-301v-588H20v-229h154v-266h300v266h209" id="aC"/><path fill="#333" d="M67 279c166-379 230-627 230-886 0-300-86-663-230-974h278c151 241 258 644 258 974 0 302-90 608-258 886H67" id="aD"/><g id="i"><use transform="matrix(0.008677625575057506,0,0,0.008677625575057506,0,0)" xlink:href="#aw"/><use transform="matrix(0.008677625575057506,0,0,0.008677625575057506,7.0201990902215226,0)" xlink:href="#ak"/><use transform="matrix(0.008677625575057506,0,0,0.008677625575057506,18.535408228322833,0)" xlink:href="#ax"/><use transform="matrix(0.008677625575057506,0,0,0.008677625575057506,25.33866667916792,0)" xlink:href="#ay"/><use transform="matrix(0.008677625575057506,0,0,0.008677625575057506,35.925369880738074,0)" xlink:href="#az"/><use transform="matrix(0.008677625575057506,0,0,0.008677625575057506,47.301737009638465,0)" xlink:href="#as"/><use transform="matrix(0.008677625575057506,0,0,0.008677625575057506,57.619433818381836,0)" xlink:href="#ax"/><use transform="matrix(0.008677625575057506,0,0,0.008677625575057506,64.42269226922691,0)" xlink:href="#ay"/><use transform="matrix(0.008677625575057506,0,0,0.008677625575057506,75.00939547079707,0)" xlink:href="#aA"/><use transform="matrix(0.008677625575057506,0,0,0.008677625575057506,85.4399014120162,0)" xlink:href="#aB"/><use transform="matrix(0.008677625575057506,0,0,0.008677625575057506,90.25598360617312,0)" xlink:href="#ay"/><use transform="matrix(0.008677625575057506,0,0,0.008677625575057506,100.84268680774328,0)" xlink:href="#ay"/><use transform="matrix(0.008677625575057506,0,0,0.008677625575057506,111.42939000931344,0)" xlink:href="#aC"/><use transform="matrix(0.008677625575057506,0,0,0.008677625575057506,117.93760919060657,0)" xlink:href="#aD"/></g><path fill="#333" d="M124 0v-220l528-495c135-132 210-216 210-336 0-133-98-215-231-215-139 0-229 88-229 233H110c0-290 214-477 523-477 315 0 525 182 525 440 0 167-80 305-385 586L548-262v11h630V0H124" id="aE"/><path fill="#333" d="M690 20C314 20 94-261 94-744c0-482 221-766 596-766 376 0 597 284 597 766 0 483-219 764-597 764zm0-253c184 0 286-184 286-511 0-328-102-514-286-514-183 0-285 187-285 514s101 511 285 511" id="aF"/><g id="j"><use transform="matrix(0.008677625575057506,0,0,0.008677625575057506,0,0)" xlink:href="#aE"/><use transform="matrix(0.008677625575057506,0,0,0.008677625575057506,11.194136991824184,0)" xlink:href="#aF"/><use transform="matrix(0.008677625575057506,0,0,0.008677625575057506,23.1779379109786,0)" xlink:href="#aE"/></g><path fill="#333" d="M49 0l509-1490h400L1480 0h-339l-115-346H497L386 0H49zm524-585h374c-75-213-124-402-192-666-66 268-110 453-182 666" id="aG"/><g id="k"><use transform="matrix(0.008677625575057506,0,0,0.008677625575057506,0,0)" xlink:href="#aG"/><use transform="matrix(0.008677625575057506,0,0,0.008677625575057506,12.860241102235225,0)" xlink:href="#ap"/><use transform="matrix(0.008677625575057506,0,0,0.008677625575057506,23.31677992017952,0)" xlink:href="#ap"/><use transform="matrix(0.008677625575057506,0,0,0.008677625575057506,33.77331873812382,0)" xlink:href="#ay"/><use transform="matrix(0.008677625575057506,0,0,0.008677625575057506,44.36002193969398,0)" xlink:href="#az"/><use transform="matrix(0.008677625575057506,0,0,0.008677625575057506,55.56283655709322,0)" xlink:href="#aC"/><use transform="matrix(0.008677625575057506,0,0,0.008677625575057506,61.8975032268852,0)" xlink:href="#ay"/><use transform="matrix(0.008677625575057506,0,0,0.008677625575057506,72.48420642845535,0)" xlink:href="#au"/></g><path fill="#333" d="M42 0l360-574-338-544h324c72 124 151 261 209 394 58-134 140-271 215-394h318L785-570 1146 0H824c-79-136-169-280-234-425C528-278 439-134 360 0H42" id="aH"/><path fill="#333" d="M513 14c-232 0-385-159-385-421v-711h300v659c0 139 76 222 202 222 127 0 217-86 217-234v-647h301V0H864l-4-232C797-74 683 14 513 14" id="aI"/><g id="l"><use transform="matrix(0.008677625575057506,0,0,0.008677625575057506,0,0)" xlink:href="#ay"/><use transform="matrix(0.008677625575057506,0,0,0.008677625575057506,10.2309205529928,0)" xlink:href="#aH"/><use transform="matrix(0.008677625575057506,0,0,0.008677625575057506,20.184157087583756,0)" xlink:href="#ay"/><use transform="matrix(0.008677625575057506,0,0,0.008677625575057506,30.77086028915392,0)" xlink:href="#ap"/><use transform="matrix(0.008677625575057506,0,0,0.008677625575057506,41.22739910709821,0)" xlink:href="#aI"/><use transform="matrix(0.008677625575057506,0,0,0.008677625575057506,52.29137171529653,0)" xlink:href="#aC"/><use transform="matrix(0.008677625575057506,0,0,0.008677625575057506,58.626038385088506,0)" xlink:href="#ay"/><use transform="matrix(0.008677625575057506,0,0,0.008677625575057506,69.21274158665867,0)" xlink:href="#aw"/><use transform="matrix(0.008677625575057506,0,0,0.008677625575057506,75.81641464927742,0)" xlink:href="#ap"/><use transform="matrix(0.008677625575057506,0,0,0.008677625575057506,86.27295346722171,0)" xlink:href="#aq"/><use transform="matrix(0.008677625575057506,0,0,0.008677625575057506,97.17205118949394,0)" xlink:href="#ar"/><use transform="matrix(0.008677625575057506,0,0,0.008677625575057506,113.39053338927641,0)" xlink:href="#ar"/><use transform="matrix(0.008677625575057506,0,0,0.008677625575057506,129.60901558905888,0)" xlink:href="#as"/><use transform="matrix(0.008677625575057506,0,0,0.008677625575057506,139.92671239780225,0)" xlink:href="#at"/><use transform="matrix(0.008677625575057506,0,0,0.008677625575057506,150.99068500600058,0)" xlink:href="#au"/><use transform="matrix(0.008677625575057506,0,0,0.008677625575057506,162.51457176967696,0)" xlink:href="#aD"/></g><path fill="#333" d="M128 0v-1118h300V0H128zm150-1264c-91 0-165-68-165-154 0-85 74-154 165-154 90 0 165 69 165 154 0 86-75 154-165 154" id="aJ"/><g id="m"><use transform="matrix(0.008677625575057506,0,0,0.008677625575057506,0,0)" xlink:href="#av"/><use transform="matrix(0.008677625575057506,0,0,0.008677625575057506,9.95323653459096,0)" xlink:href="#aC"/><use transform="matrix(0.008677625575057506,0,0,0.008677625575057506,16.548231971634664,0)" xlink:href="#as"/><use transform="matrix(0.008677625575057506,0,0,0.008677625575057506,26.86592878037804,0)" xlink:href="#ax"/><use transform="matrix(0.008677625575057506,0,0,0.008677625575057506,34.4501735329783,0)" xlink:href="#aC"/><use transform="matrix(0.008677625575057506,0,0,0.008677625575057506,41.001780842146715,0)" xlink:href="#ak"/><use transform="matrix(0.008677625575057506,0,0,0.008677625575057506,52.51698998024803,0)" xlink:href="#ax"/><use transform="matrix(0.008677625575057506,0,0,0.008677625575057506,59.32024843109311,0)" xlink:href="#ay"/><use transform="matrix(0.008677625575057506,0,0,0.008677625575057506,69.90695163266327,0)" xlink:href="#az"/><use transform="matrix(0.008677625575057506,0,0,0.008677625575057506,81.28331876156366,0)" xlink:href="#as"/><use transform="matrix(0.008677625575057506,0,0,0.008677625575057506,91.60101557030704,0)" xlink:href="#ax"/><use transform="matrix(0.008677625575057506,0,0,0.008677625575057506,98.59518178380338,0)" xlink:href="#as"/><use transform="matrix(0.008677625575057506,0,0,0.008677625575057506,108.91287859254676,0)" xlink:href="#aC"/><use transform="matrix(0.008677625575057506,0,0,0.008677625575057506,115.42109777383989,0)" xlink:href="#aJ"/><use transform="matrix(0.008677625575057506,0,0,0.008677625575057506,120.23717996799681,0)" xlink:href="#aq"/><use transform="matrix(0.008677625575057506,0,0,0.008677625575057506,131.13627769026903,0)" xlink:href="#at"/><use transform="matrix(0.008677625575057506,0,0,0.008677625575057506,142.20025029846735,0)" xlink:href="#aw"/><use transform="matrix(0.008677625575057506,0,0,0.008677625575057506,148.89937724241176,0)" xlink:href="#aD"/></g><path fill="#333" d="M1027 73L862-91l233-232c72-73 193-166 288-237-75 14-168 28-239 28H256v-239h888c70 0 163 14 239 28-200-138-356-304-522-470l165-164 726 725" id="aK"/><use transform="matrix(0.008677625575057506,0,0,0.008677625575057506,0,0)" xlink:href="#aK" id="n"/><path fill="#333" d="M625 442c-280 0-454-114-503-274l258-72c28 63 97 128 243 128 153 0 246-69 246-216v-206h-23C805-108 717-16 536-16 284-16 81-191 81-561c0-378 208-571 456-571 188 0 280 113 321 202h13v-188h295V-9c0 303-226 451-541 451zm5-686c153 0 240-119 240-319 0-198-86-329-240-329-158 0-241 137-241 329 0 195 85 319 241 319" id="aL"/><g id="o"><use transform="matrix(0.008677625575057506,0,0,0.008677625575057506,0,0)" xlink:href="#ak"/><use transform="matrix(0.008677625575057506,0,0,0.008677625575057506,11.51520913810131,0)" xlink:href="#ax"/><use transform="matrix(0.008677625575057506,0,0,0.008677625575057506,18.318467588946397,0)" xlink:href="#ay"/><use transform="matrix(0.008677625575057506,0,0,0.008677625575057506,28.905170790516557,0)" xlink:href="#az"/><use transform="matrix(0.008677625575057506,0,0,0.008677625575057506,40.28153791941695,0)" xlink:href="#as"/><use transform="matrix(0.008677625575057506,0,0,0.008677625575057506,50.599234728160326,0)" xlink:href="#ax"/><use transform="matrix(0.008677625575057506,0,0,0.008677625575057506,57.96653884138415,0)" xlink:href="#aJ"/><use transform="matrix(0.008677625575057506,0,0,0.008677625575057506,62.78262103554107,0)" xlink:href="#at"/><use transform="matrix(0.008677625575057506,0,0,0.008677625575057506,73.8465936437394,0)" xlink:href="#aL"/></g><path fill="#333" d="M754 19C571 19 479-89 437-179h-14V0H128v-1490h300v560h9c41-89 129-202 319-202 248 0 453 193 453 575 0 372-197 576-455 576zm-92-241c156 0 240-139 240-336 0-196-83-334-240-334-154 0-241 131-241 334 0 202 88 336 241 336" id="aM"/><path fill="#333" d="M428-647V0H128v-1490h294v586c65-146 175-228 341-228 232 0 385 159 385 421V0H847v-659c0-139-76-222-202-222-128 0-217 86-217 234" id="aN"/><path fill="#333" d="M750-1118v229H516V0H217v-889H20v-229h197v-86c0-238 156-356 363-356 94 0 178 20 215 31l-54 226c-25-7-61-15-100-15-123-3-131 84-125 200h234" id="aO"/><path fill="#333" d="M342-723c-98 0-173-75-173-172s75-172 173-172 173 75 173 172-75 172-173 172zm0 742c-98 0-173-75-173-172s75-172 173-172 173 75 173 172S440 19 342 19" id="aP"/><path fill="#333" d="M786 20C389 20 94-260 94-744c0-487 299-766 692-766 339 0 597 194 641 529h-309c-28-162-156-258-326-258-233 0-388 179-388 495 0 323 157 493 387 493 170 0 298-97 328-259h309c-34 277-266 530-642 530" id="aQ"/><g id="p"><use transform="matrix(0.008677625575057506,0,0,0.008677625575057506,0,0)" xlink:href="#az"/><use transform="matrix(0.008677625575057506,0,0,0.008677625575057506,11.202814617399241,0)" xlink:href="#aI"/><use transform="matrix(0.008677625575057506,0,0,0.008677625575057506,22.26678722559756,0)" xlink:href="#aM"/><use transform="matrix(0.008677625575057506,0,0,0.008677625575057506,33.4696018429968,0)" xlink:href="#aB"/><use transform="matrix(0.008677625575057506,0,0,0.008677625575057506,38.28568403715372,0)" xlink:href="#aJ"/><use transform="matrix(0.008677625575057506,0,0,0.008677625575057506,43.101766231310634,0)" xlink:href="#av"/><use transform="matrix(0.008677625575057506,0,0,0.008677625575057506,53.05500276590159,0)" xlink:href="#aN"/><use transform="matrix(0.008677625575057506,0,0,0.008677625575057506,64.1189753740999,0)" xlink:href="#aw"/><use transform="matrix(0.008677625575057506,0,0,0.008677625575057506,70.8181023180443,0)" xlink:href="#aO"/><use transform="matrix(0.008677625575057506,0,0,0.008677625575057506,77.89036716171617,0)" xlink:href="#aB"/><use transform="matrix(0.008677625575057506,0,0,0.008677625575057506,82.70644935587309,0)" xlink:href="#ay"/><use transform="matrix(0.008677625575057506,0,0,0.008677625575057506,93.29315255744325,0)" xlink:href="#ay"/><use transform="matrix(0.008677625575057506,0,0,0.008677625575057506,103.87985575901341,0)" xlink:href="#aC"/><use transform="matrix(0.008677625575057506,0,0,0.008677625575057506,110.38807494030654,0)" xlink:href="#aP"/><use transform="matrix(0.008677625575057506,0,0,0.008677625575057506,116.32357083364587,0)" xlink:href="#av"/><use transform="matrix(0.008677625575057506,0,0,0.008677625575057506,126.27680736823683,0)" xlink:href="#aC"/><use transform="matrix(0.008677625575057506,0,0,0.008677625575057506,132.87180280528054,0)" xlink:href="#as"/><use transform="matrix(0.008677625575057506,0,0,0.008677625575057506,143.1894996140239,0)" xlink:href="#aC"/><use transform="matrix(0.008677625575057506,0,0,0.008677625575057506,149.52416628381587,0)" xlink:href="#ay"/><use transform="matrix(0.008677625575057506,0,0,0.008677625575057506,160.11086948538602,0)" xlink:href="#aQ"/><use transform="matrix(0.008677625575057506,0,0,0.008677625575057506,173.25747223159814,0)" xlink:href="#aN"/><use transform="matrix(0.008677625575057506,0,0,0.008677625575057506,184.32144483979647,0)" xlink:href="#as"/><use transform="matrix(0.008677625575057506,0,0,0.008677625575057506,194.63914164853983,0)" xlink:href="#at"/><use transform="matrix(0.008677625575057506,0,0,0.008677625575057506,205.70311425673816,0)" xlink:href="#aL"/><use transform="matrix(0.008677625575057506,0,0,0.008677625575057506,216.93196175086257,0)" xlink:href="#ay"/><use transform="matrix(0.008677625575057506,0,0,0.008677625575057506,227.51866495243272,0)" xlink:href="#au"/><use transform="matrix(0.008677625575057506,0,0,0.008677625575057506,239.04255171610907,0)" xlink:href="#aD"/></g><g id="q"><use transform="matrix(0.008677625575057506,0,0,0.008677625575057506,0,0)" xlink:href="#ay"/><use transform="matrix(0.008677625575057506,0,0,0.008677625575057506,10.586703201570158,0)" xlink:href="#ar"/><use transform="matrix(0.008677625575057506,0,0,0.008677625575057506,26.805185401352638,0)" xlink:href="#aJ"/><use transform="matrix(0.008677625575057506,0,0,0.008677625575057506,31.621267595509554,0)" xlink:href="#aC"/><use transform="matrix(0.008677625575057506,0,0,0.008677625575057506,38.129486776802686,0)" xlink:href="#aw"/><use transform="matrix(0.008677625575057506,0,0,0.008677625575057506,44.82861372074708,0)" xlink:href="#aO"/><use transform="matrix(0.008677625575057506,0,0,0.008677625575057506,51.900878564418946,0)" xlink:href="#aB"/><use transform="matrix(0.008677625575057506,0,0,0.008677625575057506,56.71696075857586,0)" xlink:href="#ay"/><use transform="matrix(0.008677625575057506,0,0,0.008677625575057506,67.30366396014603,0)" xlink:href="#ay"/><use transform="matrix(0.008677625575057506,0,0,0.008677625575057506,77.89036716171617,0)" xlink:href="#aC"/><use transform="matrix(0.008677625575057506,0,0,0.008677625575057506,84.39858634300931,0)" xlink:href="#aP"/><use transform="matrix(0.008677625575057506,0,0,0.008677625575057506,90.33408223634866,0)" xlink:href="#av"/><use transform="matrix(0.008677625575057506,0,0,0.008677625575057506,100.2873187709396,0)" xlink:href="#aC"/><use transform="matrix(0.008677625575057506,0,0,0.008677625575057506,106.88231420798331,0)" xlink:href="#as"/><use transform="matrix(0.008677625575057506,0,0,0.008677625575057506,117.20001101672669,0)" xlink:href="#aC"/><use transform="matrix(0.008677625575057506,0,0,0.008677625575057506,123.53467768651866,0)" xlink:href="#ay"/><use transform="matrix(0.008677625575057506,0,0,0.008677625575057506,134.12138088808882,0)" xlink:href="#aQ"/><use transform="matrix(0.008677625575057506,0,0,0.008677625575057506,147.26798363430095,0)" xlink:href="#aN"/><use transform="matrix(0.008677625575057506,0,0,0.008677625575057506,158.33195624249927,0)" xlink:href="#as"/><use transform="matrix(0.008677625575057506,0,0,0.008677625575057506,168.64965305124264,0)" xlink:href="#at"/><use transform="matrix(0.008677625575057506,0,0,0.008677625575057506,179.71362565944096,0)" xlink:href="#aL"/><use transform="matrix(0.008677625575057506,0,0,0.008677625575057506,190.94247315356537,0)" xlink:href="#ay"/><use transform="matrix(0.008677625575057506,0,0,0.008677625575057506,201.52917635513552,0)" xlink:href="#au"/><use transform="matrix(0.008677625575057506,0,0,0.008677625575057506,213.05306311881188,0)" xlink:href="#aD"/></g><path fill="#333" d="M443 0L31-1118h319c90 293 199 572 268 885 66-313 175-593 264-885h315L784 0H443" id="aR"/><path fill="#333" d="M1163 418H863v-597h-10C812-89 719 19 537 19 279 19 81-185 81-557c0-382 206-575 454-575 190 0 278 113 318 202h15v-188h295V418zM629-222c153 0 240-134 240-336 0-203-86-334-240-334-158 0-240 138-240 334 0 197 84 336 240 336" id="aS"/><path fill="#333" d="M135 0v-1490h581c339 0 533 192 533 485 0 204-94 351-264 424L1302 0H964L680-532H440V0H135zm305-779h220c186 0 274-77 274-226 0-150-88-233-275-233H440v459" id="aT"/><g id="r"><use transform="matrix(0.008677625575057506,0,0,0.008677625575057506,0,0)" xlink:href="#ax"/><use transform="matrix(0.008677625575057506,0,0,0.008677625575057506,6.803258450845085,0)" xlink:href="#ay"/><use transform="matrix(0.008677625575057506,0,0,0.008677625575057506,17.389961652415245,0)" xlink:href="#av"/><use transform="matrix(0.008677625575057506,0,0,0.008677625575057506,27.343198187006205,0)" xlink:href="#ay"/><use transform="matrix(0.008677625575057506,0,0,0.008677625575057506,37.92990138857636,0)" xlink:href="#ax"/><use transform="matrix(0.008677625575057506,0,0,0.008677625575057506,45.44472513657617,0)" xlink:href="#aR"/><use transform="matrix(0.008677625575057506,0,0,0.008677625575057506,55.77977719646966,0)" xlink:href="#ay"/><use transform="matrix(0.008677625575057506,0,0,0.008677625575057506,66.36648039803981,0)" xlink:href="#aw"/><use transform="matrix(0.008677625575057506,0,0,0.008677625575057506,73.38667948826134,0)" xlink:href="#ax"/><use transform="matrix(0.008677625575057506,0,0,0.008677625575057506,80.18993793910641,0)" xlink:href="#ay"/><use transform="matrix(0.008677625575057506,0,0,0.008677625575057506,90.77664114067657,0)" xlink:href="#aS"/><use transform="matrix(0.008677625575057506,0,0,0.008677625575057506,101.97945575807582,0)" xlink:href="#aI"/><use transform="matrix(0.008677625575057506,0,0,0.008677625575057506,113.04342836627414,0)" xlink:href="#aJ"/><use transform="matrix(0.008677625575057506,0,0,0.008677625575057506,117.85951056043105,0)" xlink:href="#ax"/><use transform="matrix(0.008677625575057506,0,0,0.008677625575057506,124.66276901127613,0)" xlink:href="#ay"/><use transform="matrix(0.008677625575057506,0,0,0.008677625575057506,135.24947221284629,0)" xlink:href="#au"/><use transform="matrix(0.008677625575057506,0,0,0.008677625575057506,146.45228683024553,0)" xlink:href="#aT"/><use transform="matrix(0.008677625575057506,0,0,0.008677625575057506,157.9067525893214,0)" xlink:href="#ay"/><use transform="matrix(0.008677625575057506,0,0,0.008677625575057506,168.49345579089157,0)" xlink:href="#av"/><use transform="matrix(0.008677625575057506,0,0,0.008677625575057506,178.44669232548253,0)" xlink:href="#aq"/><use transform="matrix(0.008677625575057506,0,0,0.008677625575057506,189.34579004775475,0)" xlink:href="#aI"/><use transform="matrix(0.008677625575057506,0,0,0.008677625575057506,200.40976265595307,0)" xlink:href="#ax"/><use transform="matrix(0.008677625575057506,0,0,0.008677625575057506,207.2130211067982,0)" xlink:href="#ap"/><use transform="matrix(0.008677625575057506,0,0,0.008677625575057506,217.6695599247425,0)" xlink:href="#ay"/><use transform="matrix(0.008677625575057506,0,0,0.008677625575057506,228.2562631263126,0)" xlink:href="#av"/><use transform="matrix(0.008677625575057506,0,0,0.008677625575057506,238.2094996609036,0)" xlink:href="#aD"/></g><g id="s"><use transform="matrix(0.008677625575057506,0,0,0.008677625575057506,0,0)" xlink:href="#ax"/><use transform="matrix(0.008677625575057506,0,0,0.008677625575057506,6.803258450845085,0)" xlink:href="#ay"/><use transform="matrix(0.008677625575057506,0,0,0.008677625575057506,17.389961652415245,0)" xlink:href="#av"/><use transform="matrix(0.008677625575057506,0,0,0.008677625575057506,27.343198187006205,0)" xlink:href="#ay"/><use transform="matrix(0.008677625575057506,0,0,0.008677625575057506,37.92990138857636,0)" xlink:href="#ax"/><use transform="matrix(0.008677625575057506,0,0,0.008677625575057506,45.44472513657617,0)" xlink:href="#aR"/><use transform="matrix(0.008677625575057506,0,0,0.008677625575057506,55.77977719646966,0)" xlink:href="#ay"/><use transform="matrix(0.008677625575057506,0,0,0.008677625575057506,66.36648039803981,0)" xlink:href="#au"/></g><g id="t"><use transform="matrix(0.008677625575057506,0,0,0.008677625575057506,0,0)" xlink:href="#as"/><use transform="matrix(0.008677625575057506,0,0,0.008677625575057506,10.317696808743374,0)" xlink:href="#ar"/><use transform="matrix(0.008677625575057506,0,0,0.008677625575057506,26.536179008525856,0)" xlink:href="#aq"/><use transform="matrix(0.008677625575057506,0,0,0.008677625575057506,37.43527673079808,0)" xlink:href="#aI"/><use transform="matrix(0.008677625575057506,0,0,0.008677625575057506,48.49924933899641,0)" xlink:href="#at"/><use transform="matrix(0.008677625575057506,0,0,0.008677625575057506,59.56322194719472,0)" xlink:href="#aC"/><use transform="matrix(0.008677625575057506,0,0,0.008677625575057506,65.941276744862,0)" xlink:href="#av"/></g><g id="u"><use transform="matrix(0.008677625575057506,0,0,0.008677625575057506,0,0)" xlink:href="#ap"/><use transform="matrix(0.008677625575057506,0,0,0.008677625575057506,10.456538817944296,0)" xlink:href="#aq"/><use transform="matrix(0.008677625575057506,0,0,0.008677625575057506,21.355636540216523,0)" xlink:href="#ar"/><use transform="matrix(0.008677625575057506,0,0,0.008677625575057506,37.574118739999,0)" xlink:href="#az"/><use transform="matrix(0.008677625575057506,0,0,0.008677625575057506,48.77693335739824,0)" xlink:href="#aB"/><use transform="matrix(0.008677625575057506,0,0,0.008677625575057506,53.593015551555155,0)" xlink:href="#ay"/><use transform="matrix(0.008677625575057506,0,0,0.008677625575057506,64.17971875312531,0)" xlink:href="#aC"/><use transform="matrix(0.008677625575057506,0,0,0.008677625575057506,70.51438542291729,0)" xlink:href="#ay"/><use transform="matrix(0.008677625575057506,0,0,0.008677625575057506,81.10108862448745,0)" xlink:href="#ak"/><use transform="matrix(0.008677625575057506,0,0,0.008677625575057506,92.61629776258874,0)" xlink:href="#ax"/><use transform="matrix(0.008677625575057506,0,0,0.008677625575057506,99.41955621343384,0)" xlink:href="#ay"/><use transform="matrix(0.008677625575057506,0,0,0.008677625575057506,110.006259415004,0)" xlink:href="#az"/><use transform="matrix(0.008677625575057506,0,0,0.008677625575057506,121.3826265439044,0)" xlink:href="#as"/><use transform="matrix(0.008677625575057506,0,0,0.008677625575057506,131.70032335264776,0)" xlink:href="#ax"/><use transform="matrix(0.008677625575057506,0,0,0.008677625575057506,138.6944895661441,0)" xlink:href="#as"/><use transform="matrix(0.008677625575057506,0,0,0.008677625575057506,149.01218637488748,0)" xlink:href="#aC"/><use transform="matrix(0.008677625575057506,0,0,0.008677625575057506,155.5204055561806,0)" xlink:href="#aJ"/><use transform="matrix(0.008677625575057506,0,0,0.008677625575057506,160.3364877503375,0)" xlink:href="#aq"/><use transform="matrix(0.008677625575057506,0,0,0.008677625575057506,171.23558547260976,0)" xlink:href="#at"/><use transform="matrix(0.008677625575057506,0,0,0.008677625575057506,182.29955808080805,0)" xlink:href="#aw"/><use transform="matrix(0.008677625575057506,0,0,0.008677625575057506,188.99868502475246,0)" xlink:href="#aD"/></g><path fill="#333" d="M818-733v240H140v-240h678" id="aU"/><path fill="#333" d="M1224-471L205-19v-287l694-281v-14L205-883v-289l1019 454v247" id="aV"/><g id="v"><use transform="matrix(0.008677625575057506,0,0,0.008677625575057506,0,0)" xlink:href="#aU"/><use transform="matrix(0.008677625575057506,0,0,0.008677625575057506,8.31316530090509,0)" xlink:href="#aV"/></g><g id="w"><use transform="matrix(0.008677625575057506,0,0,0.008677625575057506,0,0)" xlink:href="#ak"/><use transform="matrix(0.008677625575057506,0,0,0.008677625575057506,11.51520913810131,0)" xlink:href="#ax"/><use transform="matrix(0.008677625575057506,0,0,0.008677625575057506,18.318467588946397,0)" xlink:href="#ay"/><use transform="matrix(0.008677625575057506,0,0,0.008677625575057506,28.905170790516557,0)" xlink:href="#az"/><use transform="matrix(0.008677625575057506,0,0,0.008677625575057506,40.28153791941695,0)" xlink:href="#as"/><use transform="matrix(0.008677625575057506,0,0,0.008677625575057506,50.599234728160326,0)" xlink:href="#ax"/><use transform="matrix(0.008677625575057506,0,0,0.008677625575057506,57.40249317900541,0)" xlink:href="#ay"/><use transform="matrix(0.008677625575057506,0,0,0.008677625575057506,67.98919638057556,0)" xlink:href="#au"/></g><g id="x"><use transform="matrix(0.008677625575057506,0,0,0.008677625575057506,0,0)" xlink:href="#aQ"/><use transform="matrix(0.008677625575057506,0,0,0.008677625575057506,13.146602746212123,0)" xlink:href="#aq"/><use transform="matrix(0.008677625575057506,0,0,0.008677625575057506,24.045700468484352,0)" xlink:href="#ar"/><use transform="matrix(0.008677625575057506,0,0,0.008677625575057506,40.26418266826683,0)" xlink:href="#ar"/><use transform="matrix(0.008677625575057506,0,0,0.008677625575057506,56.4826648680493,0)" xlink:href="#as"/><use transform="matrix(0.008677625575057506,0,0,0.008677625575057506,66.80036167679268,0)" xlink:href="#at"/><use transform="matrix(0.008677625575057506,0,0,0.008677625575057506,77.864334284991,0)" xlink:href="#au"/><use transform="matrix(0.008677625575057506,0,0,0.008677625575057506,89.06714890239024,0)" xlink:href="#aT"/><use transform="matrix(0.008677625575057506,0,0,0.008677625575057506,100.52161466146616,0)" xlink:href="#ay"/><use transform="matrix(0.008677625575057506,0,0,0.008677625575057506,111.1083178630363,0)" xlink:href="#av"/><use transform="matrix(0.008677625575057506,0,0,0.008677625575057506,121.06155439762728,0)" xlink:href="#aI"/><use transform="matrix(0.008677625575057506,0,0,0.008677625575057506,132.1255270058256,0)" xlink:href="#aB"/><use transform="matrix(0.008677625575057506,0,0,0.008677625575057506,137.20193796723424,0)" xlink:href="#aC"/></g><path fill="#333" d="M180 0v-1490h190v1322h690V0H180" id="aW"/><g id="y"><use transform="matrix(0.010850694444444444,0,0,0.010850694444444444,0,0)" xlink:href="#aW"/><use transform="matrix(0.010850694444444444,0,0,0.010850694444444444,12.565104166666666,0)" xlink:href="#R"/><use transform="matrix(0.010850694444444444,0,0,0.010850694444444444,25.889756944444443,0)" xlink:href="#R"/><use transform="matrix(0.010850694444444444,0,0,0.010850694444444444,39.21440972222222,0)" xlink:href="#Z"/></g><path fill="#333" d="M226 279v-1860h398v153H398V126h226v153H226" id="aX"/><path fill="#333" d="M784 20c-382 0-662-292-662-764 0-473 280-766 662-766s660 293 660 766c0 472-278 764-660 764zm0-176c266 0 475-207 475-588 0-383-209-590-475-590-268 0-477 208-477 590 0 380 209 588 477 588" id="aY"/><g id="z"><use transform="matrix(0.010850694444444444,0,0,0.010850694444444444,0,0)" xlink:href="#aX"/><use transform="matrix(0.010850694444444444,0,0,0.010850694444444444,8.10546875,0)" xlink:href="#aY"/><use transform="matrix(0.010850694444444444,0,0,0.010850694444444444,25.09765625,0)" xlink:href="#P"/></g><path fill="#333" d="M140 405l46-156c120 36 205 19 263-150l32-93L54-1118h197c107 313 237 620 324 950 87-331 219-637 326-950h196L606 167c-68 178-176 259-334 259-64 0-113-12-132-21" id="aZ"/><g id="A"><use transform="matrix(0.010850694444444444,0,0,0.010850694444444444,0,0)" xlink:href="#L"/><use transform="matrix(0.010850694444444444,0,0,0.010850694444444444,16.23263888888889,0)" xlink:href="#R"/><use transform="matrix(0.010850694444444444,0,0,0.010850694444444444,29.557291666666664,0)" xlink:href="#P"/><use transform="matrix(0.010850694444444444,0,0,0.010850694444444444,42.68663194444444,0)" xlink:href="#af"/><use transform="matrix(0.010850694444444444,0,0,0.010850694444444444,55.38194444444444,0)" xlink:href="#W"/><use transform="matrix(0.010850694444444444,0,0,0.010850694444444444,68.52213541666666,0)" xlink:href="#Y"/><use transform="matrix(0.010850694444444444,0,0,0.010850694444444444,77.23524305555556,0)" xlink:href="#Y"/><use transform="matrix(0.010850694444444444,0,0,0.010850694444444444,85.23220486111111,0)" xlink:href="#O"/><use transform="matrix(0.010850694444444444,0,0,0.010850694444444444,98.1879340277778,0)" xlink:href="#P"/><use transform="matrix(0.010850694444444444,0,0,0.010850694444444444,111.31727430555556,0)" xlink:href="#af"/><use transform="matrix(0.010850694444444444,0,0,0.010850694444444444,123.5785590277778,0)" xlink:href="#aZ"/><use transform="matrix(0.010850694444444444,0,0,0.010850694444444444,136.17621527777777,0)" xlink:href="#ag"/><use transform="matrix(0.010850694444444444,0,0,0.010850694444444444,149.53342013888889,0)" xlink:href="#Y"/><use transform="matrix(0.010850694444444444,0,0,0.010850694444444444,158.24652777777777,0)" xlink:href="#Y"/><use transform="matrix(0.010850694444444444,0,0,0.010850694444444444,166.24348958333331,0)" xlink:href="#R"/><use transform="matrix(0.010850694444444444,0,0,0.010850694444444444,179.56814236111111,0)" xlink:href="#Y"/></g><path fill="#333" d="M218-607c0-325 108-727 258-974h175c-155 315-250 682-250 974 0 265 78 531 250 886H476C306-10 218-315 218-607" id="ba"/><g id="B"><use transform="matrix(0.010850694444444444,0,0,0.010850694444444444,0,0)" xlink:href="#ba"/><use transform="matrix(0.010850694444444444,0,0,0.010850694444444444,8.10546875,0)" xlink:href="#W"/><use transform="matrix(0.010850694444444444,0,0,0.010850694444444444,21.24565972222222,0)" xlink:href="#Z"/></g><g id="C"><use transform="matrix(0.010850694444444444,0,0,0.010850694444444444,0,0)" xlink:href="#Q"/><use transform="matrix(0.010850694444444444,0,0,0.010850694444444444,7.052951388888888,0)" xlink:href="#R"/></g><path fill="#333" d="M626 20c-262 0-458-168-468-396h184c12 133 134 229 284 229 180 0 311-137 311-326 0-192-136-335-323-335-92 0-196 33-255 78l-178-22 88-738h784v167H429l-51 435h8c61-51 160-87 263-87 273 0 474 211 474 499 0 286-210 496-497 496" id="bb"/><path fill="#333" d="M1034-112L680-466 326-112 210-228l354-354-354-354 116-118 354 355 354-355 116 118-354 354 354 354" id="bc"/><path fill="#333" d="M96 279C273-86 346-350 346-607c0-292-95-659-250-974h175c150 246 258 650 258 974 0 297-91 602-258 886H96" id="bd"/><path fill="#333" d="M123 279V126h226v-1554H123v-153h398V279H123" id="be"/><g id="D"><use transform="matrix(0.010850694444444444,0,0,0.010850694444444444,0,0)" xlink:href="#bb"/><use transform="matrix(0.010850694444444444,0,0,0.010850694444444444,13.509114583333332,0)" xlink:href="#bc"/><use transform="matrix(0.010850694444444444,0,0,0.010850694444444444,28.211805555555554,0)" xlink:href="#bd"/><use transform="matrix(0.010850694444444444,0,0,0.010850694444444444,36.31727430555556,0)" xlink:href="#be"/></g><g id="E"><use transform="matrix(0.008677625575057506,0,0,0.008677625575057506,0,0)" xlink:href="#aT"/><use transform="matrix(0.008677625575057506,0,0,0.008677625575057506,11.454465759075909,0)" xlink:href="#ay"/><use transform="matrix(0.008677625575057506,0,0,0.008677625575057506,22.041168960646072,0)" xlink:href="#aU"/><use transform="matrix(0.008677625575057506,0,0,0.008677625575057506,30.35433426155116,0)" xlink:href="#ax"/><use transform="matrix(0.008677625575057506,0,0,0.008677625575057506,37.157592712396244,0)" xlink:href="#ay"/><use transform="matrix(0.008677625575057506,0,0,0.008677625575057506,47.917848425467554,0)" xlink:href="#as"/><use transform="matrix(0.008677625575057506,0,0,0.008677625575057506,58.23554523421093,0)" xlink:href="#au"/></g><path fill="#333" d="M119 395l88-620h300L323 395H119" id="bf"/><g id="F"><use transform="matrix(0.008677625575057506,0,0,0.008677625575057506,0,0)" xlink:href="#az"/><use transform="matrix(0.008677625575057506,0,0,0.008677625575057506,11.202814617399241,0)" xlink:href="#aq"/><use transform="matrix(0.008677625575057506,0,0,0.008677625575057506,22.10191233967147,0)" xlink:href="#aq"/><use transform="matrix(0.008677625575057506,0,0,0.008677625575057506,33.001010061943695,0)" xlink:href="#aB"/><use transform="matrix(0.008677625575057506,0,0,0.008677625575057506,37.81709225610061,0)" xlink:href="#bf"/></g><path fill="#333" d="M120 396l69-226c123 42 245 23 254-107l8-60L31-1118h319c87 288 199 559 259 872 72-308 185-583 277-872h315L726 132c-68 181-186 294-410 294-79 0-153-13-196-30" id="bg"/><g id="G"><use transform="matrix(0.008677625575057506,0,0,0.008677625575057506,0,0)" xlink:href="#ax"/><use transform="matrix(0.008677625575057506,0,0,0.008677625575057506,6.803258450845085,0)" xlink:href="#ay"/><use transform="matrix(0.008677625575057506,0,0,0.008677625575057506,17.389961652415245,0)" xlink:href="#aC"/><use transform="matrix(0.008677625575057506,0,0,0.008677625575057506,23.898180833708373,0)" xlink:href="#ax"/><use transform="matrix(0.008677625575057506,0,0,0.008677625575057506,31.413004581708172,0)" xlink:href="#bg"/></g><g id="H"><use transform="matrix(0.008677625575057506,0,0,0.008677625575057506,0,0)" xlink:href="#aI"/><use transform="matrix(0.008677625575057506,0,0,0.008677625575057506,11.06397260819832,0)" xlink:href="#az"/><use transform="matrix(0.008677625575057506,0,0,0.008677625575057506,22.26678722559756,0)" xlink:href="#au"/><use transform="matrix(0.008677625575057506,0,0,0.008677625575057506,33.4696018429968,0)" xlink:href="#as"/><use transform="matrix(0.008677625575057506,0,0,0.008677625575057506,43.78729865174017,0)" xlink:href="#aC"/><use transform="matrix(0.008677625575057506,0,0,0.008677625575057506,50.12196532153215,0)" xlink:href="#ay"/></g><g id="I"><use transform="matrix(0.008677625575057506,0,0,0.008677625575057506,0,0)" xlink:href="#am"/><use transform="matrix(0.008677625575057506,0,0,0.008677625575057506,11.636695896152116,0)" xlink:href="#ay"/><use transform="matrix(0.008677625575057506,0,0,0.008677625575057506,22.223399097722268,0)" xlink:href="#aC"/><use transform="matrix(0.008677625575057506,0,0,0.008677625575057506,28.106829237611258,0)" xlink:href="#aC"/><use transform="matrix(0.008677625575057506,0,0,0.008677625575057506,34.658436546779676,0)" xlink:href="#aB"/><use transform="matrix(0.008677625575057506,0,0,0.008677625575057506,39.47451874093659,0)" xlink:href="#ay"/><use transform="matrix(0.008677625575057506,0,0,0.008677625575057506,50.06122194250675,0)" xlink:href="#aP"/></g><g id="J"><use transform="matrix(0.008677625575057506,0,0,0.008677625575057506,0,0)" xlink:href="#am"/><use transform="matrix(0.008677625575057506,0,0,0.008677625575057506,11.636695896152116,0)" xlink:href="#aI"/><use transform="matrix(0.008677625575057506,0,0,0.008677625575057506,22.700668504350435,0)" xlink:href="#ap"/><use transform="matrix(0.008677625575057506,0,0,0.008677625575057506,33.15720732229473,0)" xlink:href="#ap"/><use transform="matrix(0.008677625575057506,0,0,0.008677625575057506,43.61374614023903,0)" xlink:href="#ay"/><use transform="matrix(0.008677625575057506,0,0,0.008677625575057506,54.20044934180919,0)" xlink:href="#ay"/><use transform="matrix(0.008677625575057506,0,0,0.008677625575057506,64.78715254337935,0)" xlink:href="#au"/><use transform="matrix(0.008677625575057506,0,0,0.008677625575057506,75.98996716077859,0)" xlink:href="#ay"/><use transform="matrix(0.008677625575057506,0,0,0.008677625575057506,86.57667036234875,0)" xlink:href="#au"/></g><g id="K"><use transform="matrix(0.008677625575057506,0,0,0.008677625575057506,0,0)" xlink:href="#az"/><use transform="matrix(0.008677625575057506,0,0,0.008677625575057506,11.202814617399241,0)" xlink:href="#aI"/><use transform="matrix(0.008677625575057506,0,0,0.008677625575057506,22.26678722559756,0)" xlink:href="#aM"/><use transform="matrix(0.008677625575057506,0,0,0.008677625575057506,33.4696018429968,0)" xlink:href="#aB"/><use transform="matrix(0.008677625575057506,0,0,0.008677625575057506,38.28568403715372,0)" xlink:href="#aJ"/><use transform="matrix(0.008677625575057506,0,0,0.008677625575057506,43.101766231310634,0)" xlink:href="#av"/><use transform="matrix(0.008677625575057506,0,0,0.008677625575057506,53.05500276590159,0)" xlink:href="#aN"/><use transform="matrix(0.008677625575057506,0,0,0.008677625575057506,64.1189753740999,0)" xlink:href="#aw"/><use transform="matrix(0.008677625575057506,0,0,0.008677625575057506,70.72264843671866,0)" xlink:href="#ap"/><use transform="matrix(0.008677625575057506,0,0,0.008677625575057506,81.17918725466296,0)" xlink:href="#aq"/><use transform="matrix(0.008677625575057506,0,0,0.008677625575057506,92.07828497693518,0)" xlink:href="#ar"/><use transform="matrix(0.008677625575057506,0,0,0.008677625575057506,108.29676717671765,0)" xlink:href="#ar"/><use transform="matrix(0.008677625575057506,0,0,0.008677625575057506,124.51524937650012,0)" xlink:href="#as"/><use transform="matrix(0.008677625575057506,0,0,0.008677625575057506,134.8329461852435,0)" xlink:href="#at"/><use transform="matrix(0.008677625575057506,0,0,0.008677625575057506,145.8969187934418,0)" xlink:href="#au"/><use transform="matrix(0.008677625575057506,0,0,0.008677625575057506,157.09973341084105,0)" xlink:href="#aP"/><use transform="matrix(0.008677625575057506,0,0,0.008677625575057506,163.03522930418038,0)" xlink:href="#av"/><use transform="matrix(0.008677625575057506,0,0,0.008677625575057506,172.98846583877133,0)" xlink:href="#aI"/><use transform="matrix(0.008677625575057506,0,0,0.008677625575057506,184.05243844696966,0)" xlink:href="#ap"/><use transform="matrix(0.008677625575057506,0,0,0.008677625575057506,194.50897726491397,0)" xlink:href="#ap"/><use transform="matrix(0.008677625575057506,0,0,0.008677625575057506,204.96551608285827,0)" xlink:href="#ay"/><use transform="matrix(0.008677625575057506,0,0,0.008677625575057506,215.55221928442842,0)" xlink:href="#ay"/><use transform="matrix(0.008677625575057506,0,0,0.008677625575057506,226.13892248599856,0)" xlink:href="#au"/><use transform="matrix(0.008677625575057506,0,0,0.008677625575057506,237.3417371033978,0)" xlink:href="#ay"/><use transform="matrix(0.008677625575057506,0,0,0.008677625575057506,247.92844030496795,0)" xlink:href="#au"/><use transform="matrix(0.008677625575057506,0,0,0.008677625575057506,259.4523270686443,0)" xlink:href="#aD"/></g></defs></g></svg>